<?xml version="1.0" encoding="UTF-8"?>
<svg version="1.1" xmlns="http://www.w3.org/2000/svg" width="4320" height="4320">
<path d="M0 0 C1425.6 0 2851.2 0 4320 0 C4320 1425.6 4320 2851.2 4320 4320 C2894.4 4320 1468.8 4320 0 4320 C0 2894.4 0 1468.8 0 0 Z " fill="#000000" transform="translate(0,0)"/>
<path d="M0 0 C1.1534491 0.00082581 2.30689819 0.00165161 3.49530029 0.00250244 C20.40891406 0.0300741 37.24900016 0.56117242 54.125 1.6875 C55.08027588 1.75053314 56.03555176 1.81356628 57.01977539 1.87850952 C66.95939599 2.55257054 76.69415988 3.50115443 86.5 5.3125 C88.97662793 5.64452063 91.45566118 5.95948375 93.9375 6.25 C95.31654465 6.41945036 96.69544421 6.59008444 98.07421875 6.76171875 C100.32095178 7.0413637 102.56768305 7.32079442 104.81494141 7.59619141 C120.58538745 9.56307088 136.00750705 12.80241116 151.5 16.3125 C152.50224609 16.53728027 153.50449219 16.76206055 154.53710938 16.99365234 C164.15856676 19.16193766 173.64352813 21.52296524 183.02490234 24.57617188 C186.94597086 25.85049386 190.8620474 26.93167569 194.875 27.875 C199.42501369 28.96504366 203.57805266 30.46582413 207.8828125 32.28125 C210.82153215 33.43919327 213.78510576 34.34976766 216.8125 35.25 C223.52101393 37.26255418 229.99561997 39.72402223 236.5 42.3125 C237.386875 42.6528125 238.27375 42.993125 239.1875 43.34375 C244.27485161 45.31509875 249.13864918 47.55063969 253.98046875 50.06640625 C257.10112868 51.6098024 260.29235624 52.96319723 263.5 54.3125 C266.19089452 55.45053042 268.87761332 56.59787451 271.5625 57.75 C272.24376953 58.03681641 272.92503906 58.32363281 273.62695312 58.61914062 C277.91719734 60.46959178 281.63528017 62.65443791 285.5 65.3125 C287.72602615 66.08189681 287.72602615 66.08189681 289.5 66.3125 C289.5 66.9725 289.5 67.6325 289.5 68.3125 C290.345625 68.580625 291.19125 68.84875 292.0625 69.125 C295.63854067 70.3603595 299.03860908 71.789488 302.5 73.3125 C302.5 73.9725 302.5 74.6325 302.5 75.3125 C303.29277344 75.52390625 304.08554688 75.7353125 304.90234375 75.953125 C309.6819079 77.75908409 313.75274119 80.34180758 318.0625 83.0625 C319.439823 83.92488281 319.439823 83.92488281 320.8449707 84.8046875 C346.18508163 100.76125109 370.14932817 118.00590757 392.92578125 137.43896484 C396.17468172 140.20919667 399.47485504 142.9003308 402.8125 145.5625 C408.37723189 150.08129109 413.56659681 154.96892573 418.75512695 159.90917969 C422.42820642 163.40226491 426.15122307 166.78089459 430.05200195 170.01904297 C431.5 171.3125 431.5 171.3125 433.4375 173.75 C435.22877555 175.97552417 436.90449398 177.5983896 439.0625 179.4375 C446.84508089 186.11658061 453.89280059 193.2383297 460.0234375 201.4609375 C461.90427233 203.81944466 464.12084254 205.46865297 466.5 207.3125 C471.26945684 212.43902444 475.68891002 217.89793604 480.125 223.3125 C480.72473633 224.04380127 481.32447266 224.77510254 481.94238281 225.52856445 C483.18451784 227.04410597 484.42605391 228.56013858 485.66699219 230.07666016 C487.42084148 232.21594516 489.18220018 234.34881628 490.9453125 236.48046875 C497.36787486 244.27357937 503.45995809 252.20210028 509.22558594 260.4921875 C510.55500281 262.3910634 511.90402426 264.27468191 513.2578125 266.15625 C527.13722488 285.50025628 539.71312882 305.59971302 551.6640625 326.17724609 C552.93184842 328.3422603 554.21964255 330.4956382 555.5234375 332.63916016 C556.16539063 333.70312012 556.80734375 334.76708008 557.46875 335.86328125 C558.34176758 337.29087769 558.34176758 337.29087769 559.23242188 338.74731445 C560.5 341.3125 560.5 341.3125 560.5 345.3125 C561.16 345.3125 561.82 345.3125 562.5 345.3125 C564.86874328 350.02514094 567.23477847 354.73912819 569.59838867 359.4543457 C570.40169431 361.05594944 571.20571975 362.65719238 572.01049805 364.25805664 C573.171687 366.56821151 574.33022259 368.87968091 575.48828125 371.19140625 C575.84465164 371.89898575 576.20102203 372.60656525 576.56819153 373.33558655 C578.70321428 377.60515792 580.65305013 381.91056873 582.5 386.3125 C583.26579974 387.98148549 584.03639759 389.64828041 584.8125 391.3125 C587.13879251 396.39820856 589.22340326 401.56526599 591.26879883 406.76806641 C592.73311226 410.46940813 594.29488633 414.09145898 596 417.6875 C598.43331384 422.92728764 600.31559691 428.30125504 602.19262695 433.75756836 C603.88479691 438.65155204 605.7228265 443.45938428 607.6875 448.25 C609.66940473 453.11982306 611.3721898 457.93702474 612.7890625 462.99609375 C613.54856687 465.47074261 614.49469225 467.80272862 615.5 470.1875 C617.41757636 474.8173897 618.61477974 479.46718318 619.69140625 484.35546875 C620.45706054 487.42863922 620.45706054 487.42863922 621.9453125 490.65234375 C623.63018922 494.61900076 624.73244738 498.5279057 625.8125 502.6875 C631.86035206 524.84403198 640.59586859 545.5187921 655.5 563.3125 C655.95826172 563.86260742 656.41652344 564.41271484 656.88867188 564.97949219 C659.2457343 567.80452385 661.61993415 570.6133597 664.01953125 573.40234375 C665.56189274 575.21188597 667.07049445 577.05149957 668.5234375 578.93359375 C673.67370218 585.13223246 680.69001691 589.76062464 687.22485352 594.41259766 C693.08418965 598.59190272 698.06825112 602.61897769 702.6484375 608.23828125 C705.35471504 611.26999723 708.51649182 613.54725683 711.8125 615.90234375 C712.6478125 616.60037109 712.6478125 616.60037109 713.5 617.3125 C713.5 617.9725 713.5 618.6325 713.5 619.3125 C712.44683594 619.83457031 711.39367188 620.35664063 710.30859375 620.89453125 C694.87336195 628.70495678 681.9416684 638.35220568 669.5 650.3125 C668.819375 650.91835937 668.13875 651.52421875 667.4375 652.1484375 C658.31061256 660.55277969 645.06142409 675.8776696 642.5 688.3125 C641.84 688.3125 641.18 688.3125 640.5 688.3125 C640.09394531 689.57126953 640.09394531 689.57126953 639.6796875 690.85546875 C638.43835268 694.49315523 637.05956134 698.06066683 635.625 701.625 C635.38136719 702.23794922 635.13773438 702.85089844 634.88671875 703.48242188 C633.84185141 706.0891764 632.80156052 708.6809482 631.59106445 711.21606445 C627.98751358 718.80138939 625.79674328 726.84122542 623.4375 734.875 C622.78421263 737.08677863 622.12911457 739.29798576 621.47084045 741.50828552 C621.06472821 742.8731263 620.66152759 744.23883859 620.26194763 745.60560608 C618.88108419 750.26358097 617.24981663 754.78483496 615.5 759.3125 C612.4822662 767.22665631 609.50788771 775.13547475 606.875 783.1875 C605.25138436 788.13073741 603.51837017 792.97370119 601.53125 797.78125 C600.29630998 800.81246642 599.15233517 803.87397479 598 806.9375 C596.36700778 811.21224417 594.58158642 815.25872189 592.45703125 819.3046875 C591.32772692 821.6739219 590.48347091 824.08247291 589.625 826.5625 C587.79027159 831.79111338 585.41501914 836.60375986 582.87890625 841.5234375 C581.71733156 843.87291152 580.74641415 846.15837417 579.875 848.625 C578.86649967 851.32961453 577.93558156 853.43559073 576.5 855.875 C574.86129367 858.69152651 573.57594163 861.44388141 572.31640625 864.43725586 C570.48045701 868.65433904 568.30405835 872.71505201 566.21875 876.8125 C564.51846973 880.27488891 562.98817786 883.75539195 561.5 887.3125 C560.84 887.3125 560.18 887.3125 559.5 887.3125 C559.2525 888.158125 559.005 889.00375 558.75 889.875 C557.78501425 892.52871081 556.85507958 894.55081146 555.4375 896.9375 C553.92236525 899.57676698 552.97068969 901.37068943 552.5 904.3125 C551.84 904.3125 551.18 904.3125 550.5 904.3125 C549.84 906.6225 549.18 908.9325 548.5 911.3125 C547.84 911.3125 547.18 911.3125 546.5 911.3125 C546.24863281 911.99183594 545.99726563 912.67117188 545.73828125 913.37109375 C539.9087384 927.21855672 530.80982826 939.87785696 522.5 952.3125 C521.9632666 953.11623047 521.4265332 953.91996094 520.87353516 954.74804688 C510.31771062 970.49341681 499.45519074 986.06538577 487.01953125 1000.39453125 C484.57982774 1003.22004834 482.22019475 1006.09584692 479.875 1009 C474.72354115 1015.32058426 469.24798591 1021.32063619 463.734375 1027.32421875 C463.02728394 1028.09439331 463.02728394 1028.09439331 462.3059082 1028.88012695 C461.36011252 1029.90951284 460.41335134 1030.93801255 459.46557617 1031.96557617 C456.1593529 1035.55929712 452.96129909 1039.22947029 449.83984375 1042.984375 C448.5 1044.3125 448.5 1044.3125 446.5 1044.3125 C446.5 1044.9725 446.5 1045.6325 446.5 1046.3125 C445.06640625 1047.72265625 445.06640625 1047.72265625 443.0625 1049.375 C439.89242783 1052.06424994 436.91418475 1054.84763377 434 1057.8125 C429.99183511 1061.86142589 425.82337558 1065.60674951 421.5 1069.3125 C420.38450045 1070.29062276 419.27000716 1071.2698937 418.15625 1072.25 C410.43882143 1079.02424382 402.60425659 1085.58047579 394.44775391 1091.81982422 C393.10268467 1092.8506281 391.76143946 1093.8864343 390.42333984 1094.92626953 C368.9226339 1111.62031576 346.09295559 1126.7421328 322.5 1140.3125 C321.02684326 1141.16593994 321.02684326 1141.16593994 319.52392578 1142.03662109 C316.39587767 1143.84565373 313.26194182 1145.64393876 310.125 1147.4375 C309.15506104 1147.99493896 308.18512207 1148.55237793 307.18579102 1149.12670898 C302.71113981 1151.65904704 298.49927041 1153.9581826 293.5 1155.3125 C293.5 1155.9725 293.5 1156.6325 293.5 1157.3125 C292.324375 1157.8075 291.14875 1158.3025 289.9375 1158.8125 C285.51791281 1160.76436816 281.30157123 1163.00424225 277.0625 1165.3125 C272.12441763 1167.99345246 267.23753904 1170.34061036 261.96875 1172.31640625 C257.94393639 1173.94034212 254.12330269 1175.96234083 250.2578125 1177.9296875 C246.4599943 1179.83397595 242.60792924 1181.52037628 238.62890625 1183.015625 C234.7687213 1184.52438752 232.44779582 1185.61168795 230.5 1189.3125 C227.99763711 1195.44301042 227.04012215 1200.84183671 227.1875 1207.4375 C227.2033313 1208.71959351 227.2033313 1208.71959351 227.21948242 1210.02758789 C227.67121973 1232.65737874 230.81175877 1255.19676518 235.5 1277.3125 C235.79309951 1278.8228913 236.08605492 1280.33331056 236.37890625 1281.84375 C237.70239994 1288.47873986 239.28980945 1295.04850903 240.875 1301.625 C241.16632812 1302.85412109 241.45765625 1304.08324219 241.7578125 1305.34960938 C244.30793503 1315.94715805 247.11595154 1326.31686951 251.5 1336.3125 C252.23358546 1338.45682672 252.96212257 1340.60288279 253.6875 1342.75 C256.60426233 1350.97788178 260.40143228 1358.61617786 264.5 1366.3125 C264.85610352 1366.98603516 265.21220703 1367.65957031 265.57910156 1368.35351562 C278.37232222 1392.37391014 295.51927927 1414.40608655 318.5 1429.3125 C319.24378906 1429.8178125 319.98757813 1430.323125 320.75390625 1430.84375 C324.99702544 1433.65535221 329.32926136 1435.55523465 334.0859375 1437.3515625 C336.21009398 1438.19710052 338.12650567 1439.14950752 340.125 1440.25 C350.56085369 1445.55174896 361.81973672 1447.84008231 373.3671875 1448.953125 C376.5 1449.3125 376.5 1449.3125 378.5 1450.3125 C379.83913564 1450.42170743 381.18339528 1450.47146726 382.52685547 1450.48950195 C383.36736954 1450.50215591 384.20788361 1450.51480988 385.0738678 1450.52784729 C385.9956633 1450.5354155 386.9174588 1450.5429837 387.8671875 1450.55078125 C388.83260971 1450.56048447 389.79803192 1450.57018768 390.79270935 1450.58018494 C393.98684791 1450.60546032 397.18077073 1450.61778575 400.375 1450.625 C401.46855804 1450.62761841 402.56211609 1450.63023682 403.68881226 1450.63293457 C437.74169805 1450.64161797 475.15355811 1449.3590592 508.09545898 1439.95678711 C512.84834103 1438.68327145 517.61019556 1438.55507515 522.5 1438.3125 C523.98113281 1438.14621094 523.98113281 1438.14621094 525.4921875 1437.9765625 C526.44351563 1437.90179687 527.39484375 1437.82703125 528.375 1437.75 C529.21804688 1437.66621094 530.06109375 1437.58242187 530.9296875 1437.49609375 C534.59478474 1438.66023558 536.14192962 1440.62800057 538.29589844 1443.75610352 C540.61774625 1448.68555779 540.32005768 1453.71086888 540.1875 1459.0625 C540.20232422 1460.1659375 540.21714844 1461.269375 540.23242188 1462.40625 C540.14898406 1470.76966432 538.61991465 1479.5434585 532.97216797 1486.08105469 C531.0538466 1487.68570029 529.14970913 1488.43191885 526.8125 1489.3125 C525.92175781 1489.6528125 525.03101562 1489.993125 524.11328125 1490.34375 C523.25089844 1490.6634375 522.38851562 1490.983125 521.5 1491.3125 C520.46939453 1491.69921875 520.46939453 1491.69921875 519.41796875 1492.09375 C518.12247748 1492.57922942 516.82555673 1493.06090881 515.52734375 1493.5390625 C514.13438329 1494.07048094 512.75172009 1494.62945098 511.37890625 1495.2109375 C496.90976028 1501.31091472 481.3322126 1504.71520699 466.16748047 1508.62353516 C462.42094821 1509.59120073 458.67797455 1510.57169962 454.9375 1511.5625 C453.26494141 1512.00335937 453.26494141 1512.00335937 451.55859375 1512.453125 C449.49570948 1513.03273489 447.44894952 1513.67263151 445.421875 1514.3671875 C442.68404769 1515.25295516 440.1545834 1515.77609059 437.3125 1516.1875 C432.88066931 1516.87413172 428.51292201 1517.71804904 424.13478088 1518.67799377 C413.49953166 1521.00575386 402.83131936 1522.79565365 392.0625 1524.375 C390.77827652 1524.56635025 390.77827652 1524.56635025 389.46810913 1524.76156616 C375.01441931 1526.91201076 360.55616792 1528.67716389 346.00317383 1530.01879883 C343.48060407 1530.2798024 343.48060407 1530.2798024 340.94726562 1530.82885742 C338.63976188 1531.28487946 336.48333332 1531.49486766 334.13671875 1531.59375 C332.92918945 1531.64982422 332.92918945 1531.64982422 331.69726562 1531.70703125 C330.86904297 1531.74183594 330.04082031 1531.77664063 329.1875 1531.8125 C324.00595902 1532.03333916 318.91630813 1532.35766269 313.77075195 1533.04052734 C262.23848338 1539.21265369 194.36305049 1543.18821976 145.796875 1522.24609375 C143.35413527 1521.25321145 140.91311598 1520.5239416 138.375 1519.8125 C134.52263991 1518.70412268 131.1898148 1517.24045079 127.66015625 1515.36328125 C123.42794235 1513.30457322 118.94313153 1511.84799399 114.5 1510.3125 C114.5 1509.6525 114.5 1508.9925 114.5 1508.3125 C113.18 1508.3125 111.86 1508.3125 110.5 1508.3125 C110.5 1507.6525 110.5 1506.9925 110.5 1506.3125 C108.52 1505.9825 106.54 1505.6525 104.5 1505.3125 C104.5 1504.6525 104.5 1503.9925 104.5 1503.3125 C103.80390625 1503.21582031 103.1078125 1503.11914062 102.390625 1503.01953125 C86.73451738 1499.19013195 70.5982328 1484.42962313 58.5 1474.3125 C57.44141767 1473.44009031 56.38282312 1472.56769545 55.32421875 1471.6953125 C49.43378775 1466.80710845 43.80004385 1461.82328801 38.5 1456.28515625 C36.49790955 1454.23265062 36.49790955 1454.23265062 34.0234375 1452.390625 C31.29842656 1450.14649834 29.30015382 1447.77587319 27.125 1445 C24.56466986 1441.79853282 22.04436914 1438.75018508 19.0625 1435.9375 C14.43919647 1431.45236416 10.68123529 1426.26138072 6.84130859 1421.11132812 C5.94913003 1419.91482801 5.05363036 1418.72079694 4.15478516 1417.52929688 C-11.55240682 1396.70721332 -25.4962291 1374.30342385 -36.10424805 1350.4375 C-37.24567867 1347.87826809 -38.32757804 1345.53800862 -40.03515625 1343.3046875 C-42.07616492 1340.5289157 -43.10353638 1337.46570992 -44.25 1334.25 C-44.50241455 1333.55898193 -44.7548291 1332.86796387 -45.01489258 1332.15600586 C-45.55950572 1330.66449908 -46.10148675 1329.17202911 -46.64111328 1327.67871094 C-47.52923573 1325.23195632 -48.43246724 1322.79123834 -49.33984375 1320.3515625 C-49.95583251 1318.6927467 -50.57171988 1317.03389325 -51.1875 1315.375 C-51.47270508 1314.60728271 -51.75791016 1313.83956543 -52.05175781 1313.04858398 C-53.9745208 1307.83632211 -55.77152055 1302.59214593 -57.5 1297.3125 C-57.74177979 1296.58168213 -57.98355957 1295.85086426 -58.23266602 1295.09790039 C-64.27274437 1276.76014999 -68.55100854 1258.28474466 -71.43359375 1239.18359375 C-71.59988281 1238.11117432 -71.76617188 1237.03875488 -71.9375 1235.93383789 C-72.26441205 1233.81130396 -72.5787516 1231.68678551 -72.87890625 1229.56030273 C-73.94410813 1222.68670393 -75.47829311 1218.17057655 -80.6640625 1213.265625 C-87.61616746 1208.45432697 -93.939136 1207.38461076 -102.13671875 1206.765625 C-108.57252622 1206.27804517 -114.93112816 1205.32456709 -121.3125 1204.375 C-122.97442383 1204.13777222 -122.97442383 1204.13777222 -124.66992188 1203.89575195 C-131.37688532 1202.90495054 -137.93513752 1201.60230473 -144.52172852 1199.99389648 C-147.54494731 1199.30221654 -150.5601111 1198.78217683 -153.625 1198.3125 C-157.42472928 1197.71228167 -161.05398721 1196.93967234 -164.75 1195.875 C-169.01894055 1194.64752843 -173.24579022 1193.80450748 -177.625 1193.0625 C-197.89800706 1189.50287074 -219.00205217 1183.32330432 -237.98828125 1175.3046875 C-241.25732099 1174.01334054 -244.59391663 1172.95304027 -247.9375 1171.875 C-253.44307946 1170.08925816 -258.66811791 1167.97801482 -263.89453125 1165.4921875 C-266.53894631 1164.29486614 -269.19436424 1163.32198838 -271.9375 1162.375 C-276.9537998 1160.61000562 -281.5861841 1158.35594943 -286.28515625 1155.875 C-288.86158461 1154.62278694 -291.38062114 1153.56052918 -294.046875 1152.53125 C-300.45203322 1150.00969459 -306.54822247 1146.91556177 -312.6875 1143.8125 C-313.82380859 1143.24402344 -314.96011719 1142.67554687 -316.13085938 1142.08984375 C-321.67634295 1139.30255113 -327.15505049 1136.46841809 -332.5 1133.3125 C-332.5 1132.6525 -332.5 1131.9925 -332.5 1131.3125 C-333.23162354 1131.19729004 -333.96324707 1131.08208008 -334.71704102 1130.96337891 C-337.56403404 1130.29752371 -339.51620294 1129.37400387 -342.02734375 1127.8984375 C-342.89069336 1127.39248047 -343.75404297 1126.88652344 -344.64355469 1126.36523438 C-345.56555664 1125.81158203 -346.48755859 1125.25792969 -347.4375 1124.6875 C-348.40461914 1124.11064453 -349.37173828 1123.53378906 -350.36816406 1122.93945312 C-361.04278653 1116.49531028 -371.30768061 1109.488293 -381.5 1102.3125 C-382.30985352 1101.74499023 -383.11970703 1101.17748047 -383.95410156 1100.59277344 C-399.50159965 1089.66525002 -414.05664641 1077.64318302 -428.5 1065.3125 C-429.22058594 1064.70535156 -429.94117187 1064.09820313 -430.68359375 1063.47265625 C-434.12573722 1060.56348983 -437.3525092 1057.53675886 -440.5 1054.3125 C-441.87186057 1052.91358104 -443.24709417 1051.51796491 -444.625 1050.125 C-445.28757812 1049.45082031 -445.95015625 1048.77664063 -446.6328125 1048.08203125 C-448.57943317 1046.13696642 -448.57943317 1046.13696642 -451.5 1044.3125 C-451.5 1043.6525 -451.5 1042.9925 -451.5 1042.3125 C-452.09167969 1042.04695313 -452.68335937 1041.78140625 -453.29296875 1041.5078125 C-459.05591342 1038.38664247 -463.32116514 1032.45132874 -467.55078125 1027.546875 C-469.83020694 1024.93398624 -472.16212353 1022.37319979 -474.5 1019.8125 C-480.93654333 1012.74492301 -487.16353377 1005.56892133 -493.19140625 998.1484375 C-494.66893039 996.33340785 -496.155134 994.525388 -497.65234375 992.7265625 C-518.16443447 968.0230319 -535.90317181 941.13574648 -552.20019531 913.51269531 C-553.39451846 911.49104989 -554.59787019 909.47514009 -555.8046875 907.4609375 C-556.44664062 906.38070312 -557.08859375 905.30046875 -557.75 904.1875 C-558.29140625 903.27742188 -558.8328125 902.36734375 -559.390625 901.4296875 C-560.5 899.3125 -560.5 899.3125 -560.5 897.3125 C-561.16 897.3125 -561.82 897.3125 -562.5 897.3125 C-563.11875 895.8275 -563.11875 895.8275 -563.75 894.3125 C-565.24935856 890.79008348 -566.95265073 887.40089243 -568.73046875 884.01171875 C-569.5 882.3125 -569.5 882.3125 -569.5 880.3125 C-570.16 880.3125 -570.82 880.3125 -571.5 880.3125 C-571.83 878.3325 -572.16 876.3525 -572.5 874.3125 C-573.16 874.3125 -573.82 874.3125 -574.5 874.3125 C-574.5 872.9925 -574.5 871.6725 -574.5 870.3125 C-575.16 870.3125 -575.82 870.3125 -576.5 870.3125 C-576.5 868.9925 -576.5 867.6725 -576.5 866.3125 C-577.16 866.3125 -577.82 866.3125 -578.5 866.3125 C-578.75394531 865.56484375 -579.00789063 864.8171875 -579.26953125 864.046875 C-579.61371094 863.06203125 -579.95789062 862.0771875 -580.3125 861.0625 C-580.64894531 860.08796875 -580.98539063 859.1134375 -581.33203125 858.109375 C-582.45014747 855.43187931 -583.73671123 853.58771132 -585.5 851.3125 C-586.30859375 849.453125 -586.30859375 849.453125 -586.9375 847.5625 C-587.93237025 844.74888259 -589.0490897 842.14123366 -590.4375 839.5 C-592.49498911 835.5097181 -593.94770015 831.39448899 -595.43359375 827.1640625 C-596.49544592 824.32467759 -597.70822637 821.61656238 -599 818.875 C-601.18842249 814.17789807 -602.84359482 809.43696081 -604.4140625 804.50366211 C-605.43205235 801.51217259 -606.58935973 798.65279004 -607.84375 795.75390625 C-610.54762377 789.32873701 -612.82045853 782.80637053 -615 776.1875 C-615.58527466 774.42297485 -615.58527466 774.42297485 -616.18237305 772.62280273 C-618.84632375 764.51119758 -621.24444151 756.36222912 -623.453125 748.1171875 C-624.65830631 743.73716289 -626.06226885 739.45467219 -627.5390625 735.16015625 C-628.57055126 732.10342738 -629.50812784 729.02673305 -630.4375 725.9375 C-636.75675529 705.26981798 -645.16488585 686.42722735 -658.5 669.3125 C-659.13550781 668.47332031 -659.77101563 667.63414062 -660.42578125 666.76953125 C-668.27723708 656.62085588 -677.40809692 648.19114433 -687.5 640.3125 C-688.88638672 639.21808594 -688.88638672 639.21808594 -690.30078125 638.1015625 C-696.67791283 633.18280066 -703.26412785 628.83196041 -710.15698242 624.67407227 C-710.80771729 624.27889404 -711.45845215 623.88371582 -712.12890625 623.4765625 C-712.9962439 622.95763428 -712.9962439 622.95763428 -713.88110352 622.42822266 C-715.63606929 621.21872279 -717.03890271 619.85908849 -718.5 618.3125 C-713.74455702 613.32134269 -708.75419837 608.95674932 -703.25 604.8125 C-702.50274658 604.24499023 -701.75549316 603.67748047 -700.9855957 603.09277344 C-696.15687425 599.46068303 -691.21636098 596.13213785 -686.08203125 592.9453125 C-667.09942517 580.94118339 -653.31205013 565.05126427 -641.74243164 545.97045898 C-641.3324292 545.42333252 -640.92242676 544.87620605 -640.5 544.3125 C-639.84 544.3125 -639.18 544.3125 -638.5 544.3125 C-638.35304688 543.72984375 -638.20609375 543.1471875 -638.0546875 542.546875 C-636.71558266 537.65221592 -635.07337922 533.29619953 -632.6875 528.8125 C-626.53379566 516.88494962 -623.17317542 503.64747444 -619.6796875 490.74438477 C-618.25770704 485.58516092 -616.51381284 480.69137656 -614.4753418 475.74438477 C-612.97002481 471.9910775 -611.73857624 468.16032178 -610.5 464.3125 C-609.35831867 460.83196231 -608.21014935 457.35357351 -607.0625 453.875 C-606.77568359 452.99779297 -606.48886719 452.12058594 -606.19335938 451.21679688 C-603.5731125 443.29769885 -600.63098092 435.54443545 -597.0625 428 C-595.20115494 423.96993181 -593.55651496 419.90721237 -592 415.75 C-590.16480366 410.88299027 -588.06674831 406.29984859 -585.671875 401.6875 C-584.52712208 399.36746741 -583.59545114 397.04620304 -582.6875 394.625 C-580.68250175 389.43172584 -578.08913836 384.61935121 -575.4050293 379.75317383 C-573.51686502 376.31199787 -571.8610991 372.87256326 -570.34741211 369.24487305 C-559.27640025 343.99939368 -543.82326874 320.1505509 -528.5 297.3125 C-528.03819336 296.62188477 -527.57638672 295.93126953 -527.10058594 295.21972656 C-516.53259858 279.47031046 -505.18223856 264.25010662 -493.5 249.3125 C-492.86191406 248.49136719 -492.22382813 247.67023438 -491.56640625 246.82421875 C-487.00565912 241.03083726 -482.2027004 235.46616757 -477.35058594 229.91723633 C-474.12316663 226.21841197 -470.99261898 222.46889515 -467.9375 218.625 C-464.21131609 214.01359007 -460.18069074 209.83724637 -455.92358398 205.72192383 C-453.21899966 203.09575999 -450.67512263 200.40077859 -448.21484375 197.54296875 C-444.07750546 192.75981036 -439.65606746 188.28470932 -435.1875 183.8125 C-434.37732422 182.99007813 -433.56714844 182.16765625 -432.73242188 181.3203125 C-431.95833984 180.54429687 -431.18425781 179.76828125 -430.38671875 178.96875 C-429.68764404 178.26556641 -428.98856934 177.56238281 -428.26831055 176.83789062 C-426.5 175.3125 -426.5 175.3125 -424.5 175.3125 C-424.5 174.6525 -424.5 173.9925 -424.5 173.3125 C-423.20703125 172.0078125 -423.20703125 172.0078125 -421.3125 170.4375 C-418.07963679 167.69584922 -414.94081444 164.88454538 -411.84643555 161.98950195 C-406.48465195 156.97333442 -401.02305581 152.17542429 -395.29296875 147.578125 C-392.7972517 145.55362726 -390.35294237 143.47983747 -387.91918945 141.3815918 C-380.06683665 134.62935589 -371.85337914 128.4284347 -363.5 122.3125 C-362.39833496 121.50329102 -362.39833496 121.50329102 -361.27441406 120.67773438 C-351.19122349 113.28368425 -340.99852824 106.10490253 -330.5 99.3125 C-329.45585937 98.63501709 -329.45585937 98.63501709 -328.390625 97.94384766 C-310.45390108 86.34778745 -292.0703316 75.54901329 -273.125 65.6875 C-272.01447266 65.10758301 -270.90394531 64.52766602 -269.75976562 63.93017578 C-264.1280752 61.0332192 -258.5109515 58.38420077 -252.5793457 56.15869141 C-250.0355096 55.12347526 -247.75344428 53.7296739 -245.40625 52.3125 C-242.15087174 50.60476059 -238.66488044 49.52205936 -235.19921875 48.31640625 C-232.81127635 47.42827138 -230.62714912 46.43226591 -228.375 45.25 C-223.43051216 42.67071047 -218.13039451 40.3125 -212.5 40.3125 C-212.5 39.6525 -212.5 38.9925 -212.5 38.3125 C-211.89414063 38.14234375 -211.28828125 37.9721875 -210.6640625 37.796875 C-209.82617188 37.55453125 -208.98828125 37.3121875 -208.125 37.0625 C-207.31289062 36.83046875 -206.50078125 36.5984375 -205.6640625 36.359375 C-202.97855221 35.47083579 -200.42052717 34.47278633 -197.80859375 33.39453125 C-192.6098978 31.28849727 -187.34431032 29.72386233 -181.9375 28.25 C-176.10515551 26.64151875 -170.33872407 24.95367602 -164.61010742 23.0065918 C-161.41552795 21.95577733 -158.19111487 21.10221938 -154.9375 20.25 C-153.11025391 19.76853516 -153.11025391 19.76853516 -151.24609375 19.27734375 C-130.215825 13.86078861 -109.08560828 9.69737517 -87.57128906 6.74609375 C-84.69543199 6.3400904 -81.82835843 5.89894795 -78.9609375 5.4375 C-70.01454707 4.00074245 -61.22926674 2.96959264 -52.17529297 2.58007812 C-48.17174055 2.37862909 -44.20404137 1.99673408 -40.21813965 1.57841492 C-26.80260259 0.19967781 -13.47723735 -0.04106321 0 0 Z " fill="#FEFEFE" transform="translate(2820.5,1551.6875)"/>
<path d="M0 0 C0.77098328 -0.00525911 1.54196657 -0.01051822 2.33631298 -0.0159367 C4.92914649 -0.02993286 7.52147648 -0.02251665 10.11433125 -0.01523495 C11.98830796 -0.02083812 13.86228117 -0.02773976 15.73624879 -0.03583091 C20.89340207 -0.0542191 26.05040971 -0.05378016 31.20758832 -0.05024779 C36.7667305 -0.04963662 42.32582554 -0.06618399 47.88494587 -0.08042049 C58.77968515 -0.10536127 69.67437574 -0.113586 80.56914117 -0.11525763 C89.42430266 -0.11668225 98.27944806 -0.12284218 107.13460445 -0.1323595 C128.14747676 -0.15448446 149.16034035 -0.17293331 170.1732254 -0.17136383 C170.84534456 -0.17131709 171.51746371 -0.17127036 172.20995011 -0.17122221 C175.61654628 -0.17097288 179.02314244 -0.17067576 182.4297386 -0.17036808 C183.10630248 -0.17030825 183.78286635 -0.17024841 184.47993217 -0.17018676 C185.84811021 -0.17006545 187.21628826 -0.16994006 188.5844663 -0.16981059 C209.86639949 -0.16797273 231.14818923 -0.1904836 252.43008137 -0.23152828 C276.33982071 -0.27762206 300.24946657 -0.30338821 324.15926248 -0.30063862 C336.81896498 -0.29964219 349.47850574 -0.30790545 362.1381712 -0.34017277 C372.91771847 -0.36747149 383.69703072 -0.37402731 394.47659757 -0.3536445 C399.97663444 -0.34383991 405.47622026 -0.34370984 410.97621441 -0.36970425 C416.01304906 -0.39326474 421.04907416 -0.38904245 426.08588878 -0.36285185 C427.9062318 -0.358239 429.72663489 -0.36372543 431.54690709 -0.38043208 C443.34578848 -0.48153543 451.35338667 0.69134331 460.18179035 9.13590336 C464.89916305 16.35070866 466.99687338 24.42693196 469.18179035 32.69840336 C470.06121686 35.58096802 471.0339776 38.24368358 472.17886066 41.0201807 C474.15851709 45.92927674 475.86537845 50.88540322 477.47866535 55.92496586 C477.7623296 56.80112049 478.04599384 57.67727512 478.33825397 58.5799799 C478.93886785 60.43613071 479.53799386 62.29276355 480.13570881 64.14984989 C481.37905273 68.01191126 482.63059549 71.87129873 483.88177204 75.73082829 C484.50083904 77.64061563 485.11955567 79.55051659 485.73791218 81.4605341 C488.1133505 88.79734881 490.50431285 96.12860649 492.93179035 103.44840336 C493.22537434 104.3418848 493.51895832 105.23536625 493.82143879 106.15592289 C495.17678789 110.22908697 496.62695758 114.22172344 498.2638216 118.19059086 C500.68916541 124.15784525 502.52065449 130.28272189 504.36929035 136.44840336 C507.37380595 146.3978525 507.37380595 146.3978525 510.59414387 156.27872562 C511.33357746 158.46510841 512.05422835 160.65704477 512.7716341 162.85074711 C515.09991071 169.93460278 517.45271155 176.94633194 520.32095051 183.83341312 C521.37513051 186.56284648 522.23063649 189.30516145 523.0685091 192.10855961 C525.56007689 200.29391042 528.27456045 208.39931108 530.99429035 216.51090336 C531.79305795 218.89752675 532.59145478 221.28427397 533.38982868 223.67102909 C533.92452167 225.26934186 534.45941263 226.86758841 534.99450397 228.46576786 C536.65770036 233.43557619 538.30926277 238.40907487 539.9513216 243.38590336 C540.35197834 244.59746098 540.75263508 245.80901859 541.16543293 247.05729008 C541.90069307 249.28210076 542.63377398 251.50763343 543.3641634 253.73404789 C544.91506162 258.41650232 546.53224414 263.03086461 548.40054035 267.59684086 C550.18252178 271.96043309 551.55686702 276.34556083 552.80679035 280.88590336 C554.35613438 286.33930819 556.06934302 291.57681818 558.28921223 296.80069828 C559.37145597 299.55018941 560.23799395 302.30878371 561.0841341 305.13980961 C563.30347097 312.43843766 565.67608244 319.67990572 568.08852863 326.91642094 C568.80908902 329.08030639 569.52480666 331.24575637 570.2403841 333.41129398 C572.45861824 340.09129473 574.77052105 346.69070887 577.45327473 353.20157719 C578.81815659 356.69459723 579.81248467 360.27340042 580.80679035 363.88590336 C582.38147206 369.43680836 584.15473885 374.74706182 586.40835285 380.06559086 C587.70754664 383.42090002 588.5600143 386.8598345 589.40054035 390.35465336 C590.17970138 392.96081265 591.09164785 395.35741686 592.12905598 397.86637211 C594.36236102 403.4111208 596.23371083 409.03902097 598.05679035 414.72965336 C598.5667757 416.30426334 598.5667757 416.30426334 599.08706379 417.91068363 C600.526074 422.35407364 601.9570882 426.80002767 603.3888216 431.24576664 C604.44202592 434.5121362 605.49932348 437.77716176 606.55679035 441.04215336 C606.87357746 442.03098515 607.19036457 443.01981693 607.51675129 444.03861332 C609.2874226 449.50414427 611.22269236 454.84757866 613.42782307 460.15355778 C614.62530475 463.19484611 615.5146074 466.29680498 616.42202473 469.4342432 C617.53513569 473.14768456 618.75153335 476.8220972 619.97866535 480.49918461 C620.22378864 481.23370853 620.46891193 481.96823246 620.7214632 482.72501469 C621.49870422 485.04988155 622.27763825 487.37417634 623.05679035 489.69840336 C623.86728666 492.12028142 624.67743505 494.54227571 625.48757648 496.9642725 C626.02082048 498.55825327 626.55426586 500.1521667 627.08791828 501.74601078 C628.57230793 506.18118855 630.04743303 510.61922046 631.50991535 515.06168461 C631.82090168 516.004231 632.13188801 516.94677738 632.45229816 517.91788578 C632.99573754 519.56699138 633.53700027 521.21681707 634.07534504 522.86759281 C635.66529792 527.67937612 637.46188907 532.37596865 639.38467121 537.06485844 C640.86202397 540.78346916 642.07801228 544.57954301 643.30679035 548.38590336 C643.75215566 549.71835282 644.19881486 551.05037037 644.6466341 552.38199711 C646.94969959 559.28126352 649.13814398 566.21740816 651.34585285 573.14762211 C653.03368613 578.43659584 654.73623718 583.7188132 656.50259113 588.98209476 C657.48708734 591.92482385 658.45712779 594.87220748 659.4278841 597.81949711 C660.19996397 600.15415089 660.9721005 602.48878595 661.74429035 604.82340336 C662.12649738 605.98678226 662.50870441 607.15016117 662.90249348 608.34879398 C664.59048366 613.4414231 666.30144163 618.48910773 668.3419466 623.45230961 C671.10359368 630.19105716 673.15016395 637.15849405 675.30679035 644.10855961 C677.1173041 649.87249985 679.09921988 655.47624459 681.39614582 661.06314945 C682.7929878 664.62603272 683.84208869 668.26500346 684.86929035 671.94840336 C687.4313904 681.00453916 690.44994377 689.87873664 693.55679035 698.76090336 C693.85762531 699.62304447 694.15846027 700.48518559 694.46841145 701.37345219 C696.26883639 706.50770297 698.12924335 711.61473859 700.04311848 716.7076807 C702.89258894 724.29322156 705.4753015 731.87652282 707.62173176 739.69327641 C708.85039487 744.11260683 710.49892444 748.1766802 712.30679035 752.38590336 C713.37695951 755.48953273 714.34420288 758.62246711 715.30679035 761.76090336 C717.73161393 769.59106283 720.28542828 777.3675111 722.9122591 785.13199711 C723.43960285 786.69579919 723.9669466 788.25960128 724.49429035 789.82340336 C724.76692707 790.6245557 725.03956379 791.42570805 725.32046223 792.25113773 C725.5776302 793.01619633 725.83479816 793.78125492 726.0997591 794.56949711 C726.33203205 795.25584232 726.564305 795.94218754 726.80361652 796.64933109 C727.30679035 798.38590336 727.30679035 798.38590336 727.30679035 800.38590336 C729.539302 798.66091804 731.76778803 796.93111596 733.99429035 795.19840336 C734.6201302 794.71564945 735.24597004 794.23289555 735.89077473 793.73551273 C743.48263399 787.99822123 743.48263399 787.99822123 748.30679035 780.01090336 C748.63034504 779.13434086 748.95389973 778.25777836 749.2872591 777.35465336 C750.62704543 773.45335985 751.95230406 769.54777282 753.23598957 765.62760258 C755.04783541 760.09879821 756.98538015 754.61854753 758.93179035 749.13590336 C761.06322994 743.11732275 763.0186706 737.13567054 764.57876301 730.9396143 C765.28817314 728.4512072 766.1685409 726.15279168 767.1700716 723.76871586 C769.35573059 718.39329711 771.10609071 712.93065014 772.80679035 707.38590336 C774.76934614 700.98743379 776.90640537 694.76303464 779.44546223 688.56949711 C780.44093012 686.04583929 781.17266713 683.52252097 781.80679035 680.88590336 C782.62616283 677.47903886 783.7158472 674.33274869 785.05679035 671.10465336 C788.0797648 663.68261555 790.38942081 656.02091279 792.80679035 648.38590336 C798.16570409 631.46033353 798.16570409 631.46033353 801.45327473 623.54605961 C802.82857513 620.0653222 803.81834536 616.49202336 804.80679035 612.88590336 C806.0315019 608.41781776 807.37709221 604.10745579 809.15054035 599.82340336 C811.95197244 592.9853862 814.08944276 585.92874945 816.30679035 578.88590336 C818.75445955 571.1114987 821.22174859 563.41738977 824.3419466 555.88004398 C826.30034741 550.81753824 827.76235082 545.58632086 829.30679035 540.38590336 C831.37857777 533.40980665 833.53938412 526.58859155 836.31997395 519.8614893 C838.13111634 515.31795049 839.602616 510.65919413 841.11929035 506.01090336 C843.63973362 498.35395017 846.22450978 490.72871881 848.93179035 483.13590336 C851.28308888 476.52238034 853.40060626 469.87290625 855.36929035 463.13590336 C857.27485575 456.62277695 859.38273629 450.29606024 861.8395052 443.96842289 C864.43167371 437.21941345 866.71196706 430.36988303 868.99429035 423.51090336 C869.37496662 422.36935795 869.75564289 421.22781254 870.1478548 420.05167484 C872.07072316 414.24663739 873.92783 408.43455749 875.61904621 402.55753422 C876.35006236 400.24926705 877.23466327 398.05091526 878.18179035 395.82340336 C879.98739178 391.44907839 881.33340452 386.99635127 882.61929035 382.44840336 C884.29371726 376.5676618 886.18659832 370.84657007 888.36929035 365.13590336 C892.7155708 353.73096459 896.34358081 342.08377479 900.04336262 330.45719242 C902.30603946 323.37274394 904.60371206 316.3841496 907.46426105 309.51310062 C908.83823348 306.04412882 909.81756402 302.47968563 910.80679035 298.88590336 C912.36371826 293.40041324 914.11300401 288.16001011 916.3419466 282.90543461 C917.94361387 278.72294315 919.03889662 274.4000725 920.18179035 270.07340336 C921.01944775 267.32774854 921.91977114 264.84226994 923.0216341 262.21012211 C926.48619419 253.72925131 929.08356712 244.91930154 931.86929035 236.19840336 C933.01253335 232.62031702 934.16030394 229.04372776 935.3106966 225.46793461 C935.56702366 224.66048298 935.82335072 223.85303135 936.08744526 223.02111149 C937.5925487 218.34363431 939.33622137 213.88606799 941.30679035 209.38590336 C941.99067096 207.126237 942.63678954 204.85479054 943.24429035 202.57340336 C944.66887825 197.44053705 946.32684243 192.57042978 948.37710285 187.65934086 C949.5457664 184.80151655 950.51565473 181.90408412 951.4669466 178.96793461 C952.10630116 177.00229107 952.76313095 175.04232215 953.4278841 173.08512211 C956.11502839 165.1576279 958.56117448 157.20500107 960.8028841 149.13980961 C962.02675979 145.04912308 963.53722021 141.0789833 965.0606966 137.09293461 C968.64989878 127.67464698 971.73110418 118.10667916 974.80679035 108.51090336 C975.89912308 105.11721681 976.99337913 101.72415198 978.08804035 98.33121586 C978.35428715 97.50550587 978.62053394 96.67979588 978.89484882 95.82906437 C980.76545662 90.03687806 982.65854332 84.25248944 984.5763216 78.47574711 C984.94044147 77.3743993 984.94044147 77.3743993 985.3119173 76.25080204 C986.82871612 71.70060476 988.46667376 67.23056003 990.3497591 62.81949711 C993.09238964 55.84537946 995.14275437 48.63474572 997.24429035 41.44840336 C999.03318726 35.40217489 1000.8840906 29.48654369 1003.37710285 23.68668461 C1004.51890781 20.86095722 1005.39927474 17.98237781 1006.30679035 15.07340336 C1009.27536698 6.22432571 1009.27536698 6.22432571 1014.04143184 3.33392107 C1022.90846707 -0.86640058 1032.19961477 -0.17661402 1041.78532124 -0.13548946 C1043.77982194 -0.14153464 1045.77431802 -0.14931469 1047.76880592 -0.1586746 C1053.23587734 -0.17922399 1058.70268629 -0.17487382 1064.16977918 -0.16631341 C1070.07101825 -0.16137713 1075.97219428 -0.17940926 1081.87341022 -0.19438839 C1093.42822119 -0.21987984 1104.9829392 -0.22347024 1116.53777356 -0.21878786 C1125.92820107 -0.21511972 1135.31860129 -0.21864652 1144.70902538 -0.22723675 C1146.05907192 -0.22844156 1147.40911846 -0.22964395 1148.759165 -0.23084395 C1150.79363523 -0.23265849 1152.82810547 -0.23447583 1154.86257568 -0.23630866 C1173.77102989 -0.25316124 1192.67947383 -0.26184337 1211.58793449 -0.25349522 C1212.65658606 -0.25302609 1212.65658606 -0.25302609 1213.74682656 -0.25254748 C1217.35757996 -0.25093596 1220.96833332 -0.24924442 1224.57908667 -0.24752088 C1225.29617235 -0.2471787 1226.01325804 -0.24683653 1226.75207359 -0.24648398 C1228.20219275 -0.24579067 1229.6523119 -0.24509361 1231.10243105 -0.24439281 C1253.67411195 -0.23367472 1276.24563664 -0.24955221 1298.8172884 -0.28645992 C1324.18613924 -0.32789302 1349.55489333 -0.34934708 1374.9237799 -0.34130895 C1377.62864362 -0.34051827 1380.33350734 -0.33979518 1383.03837109 -0.33911419 C1383.70436096 -0.33893273 1384.37035083 -0.33875126 1385.05652221 -0.3385643 C1395.10813611 -0.33623282 1405.15965225 -0.34952497 1415.21124172 -0.37073803 C1426.64104316 -0.39453411 1438.07061458 -0.39741077 1449.50041909 -0.37315769 C1455.33249553 -0.36135902 1461.16415092 -0.35923903 1466.99619961 -0.3831625 C1472.33501203 -0.40480845 1477.67305003 -0.39876073 1483.01182567 -0.37063913 C1484.94303305 -0.36532537 1486.87430042 -0.37014066 1488.80544908 -0.38611086 C1506.15290595 -0.51961346 1506.15290595 -0.51961346 1512.92071193 4.61143458 C1514.6417183 6.81468082 1514.95963715 8.64165978 1515.30679035 11.38590336 C1515.96679035 11.38590336 1516.62679035 11.38590336 1517.30679035 11.38590336 C1517.65010773 19.79717923 1516.81918541 26.61353229 1511.30679035 33.38590336 C1507.50096106 35.24174944 1503.63677729 36.02901529 1499.49429035 36.82340336 C1498.51685871 37.01507084 1498.51685871 37.01507084 1497.51968098 37.21061039 C1494.11806249 37.87257769 1490.71221641 38.49314147 1487.2950716 39.06949711 C1474.74959957 41.219272 1462.7532252 44.6847833 1451.30679035 50.38590336 C1450.61843098 50.71848148 1449.9300716 51.05105961 1449.22085285 51.39371586 C1441.96093195 55.14161726 1435.62533549 60.25422008 1429.30679035 65.38590336 C1428.73670246 65.83780033 1428.16661457 66.2896973 1427.57925129 66.75528812 C1422.97738733 70.51865529 1419.37280295 74.7061075 1415.80679035 79.44840336 C1415.24435627 80.19066166 1414.68192219 80.93291996 1414.10244465 81.69767094 C1408.18146583 89.66443646 1403.28571451 97.85616969 1400.30679035 107.38590336 C1399.64679035 107.38590336 1398.98679035 107.38590336 1398.30679035 107.38590336 C1398.14243488 108.29469242 1398.14243488 108.29469242 1397.9747591 109.22184086 C1397.15128027 113.57355827 1396.22969827 117.75190844 1394.80679035 121.94840336 C1390.33426821 136.63315025 1391.02024032 152.53021746 1391.05345726 167.70896053 C1391.05117656 170.04724917 1391.04801937 172.38553708 1391.04407158 174.72382349 C1391.0366325 180.46519412 1391.03839591 186.20650962 1391.04408462 191.94788102 C1391.05040787 198.88014509 1391.04492299 205.81238809 1391.039122 212.74465085 C1391.02860874 225.69729838 1391.02743408 238.64993146 1391.03137875 251.60258198 C1391.03532784 264.72166413 1391.0348699 277.84073535 1391.02905369 290.95981693 C1391.0286878 291.7895228 1391.02832192 292.61922867 1391.02794495 293.47407714 C1391.02605586 297.70502388 1391.02408914 301.93597059 1391.02208996 306.16691728 C1391.00818801 335.82514782 1391.00261415 365.48337447 1391.0018995 395.14160801 C1391.00112985 426.37758562 1390.99515558 457.61355539 1390.98166943 488.84953022 C1390.9810608 490.26165143 1390.9810608 490.26165143 1390.98043987 491.70230034 C1390.97588876 502.22130971 1390.97115325 512.740319 1390.96633493 523.25932826 C1390.95742413 542.71303976 1390.94916451 562.16675154 1390.94101334 581.62046337 C1390.94060441 582.59373474 1390.94019548 583.56700611 1390.93977415 584.56977055 C1390.92034025 630.87551456 1390.90645052 677.18125975 1390.89426878 723.48700618 C1390.89346007 726.55902706 1390.89264721 729.63104794 1390.89183363 732.70306882 C1390.8795882 779.01458526 1390.86892688 825.32610187 1390.86034219 871.63761914 C1390.8593871 876.78329969 1390.85842344 881.92898024 1390.85745957 887.07466079 C1390.85726891 888.09278902 1390.85707824 889.11091725 1390.8568818 890.15989785 C1390.85495775 900.42778176 1390.85302115 910.69566567 1390.85107378 920.96354958 C1390.85049168 924.03793566 1390.84991297 927.11232175 1390.84933451 930.18670783 C1390.84059682 976.47995635 1390.8294641 1022.77320212 1390.8093605 1069.06644726 C1390.80872887 1070.52499946 1390.80872887 1070.52499946 1390.80808447 1072.01301735 C1390.79923936 1092.39661825 1390.78982264 1112.78021882 1390.7796152 1133.16381907 C1390.77484164 1142.70777838 1390.77023169 1152.25173777 1390.76572704 1161.79569721 C1390.76528149 1162.73535547 1390.76483594 1163.67501373 1390.76437689 1164.64314648 C1390.75009977 1194.94271344 1390.74628063 1225.24227096 1390.74822708 1255.5418409 C1390.75017303 1286.03711399 1390.74330637 1316.53236996 1390.72372645 1347.02763729 C1390.72102954 1351.23562635 1390.71844432 1355.44361548 1390.71592808 1359.65160465 C1390.71518298 1360.88898106 1390.71518298 1360.88898106 1390.71442282 1362.15135497 C1390.70682275 1375.2443525 1390.70936836 1388.337328 1390.71610193 1401.43032519 C1390.72251179 1414.28573508 1390.71837706 1427.14110481 1390.70281791 1439.99650731 C1390.69478438 1446.88077574 1390.69156788 1453.76496368 1390.70203716 1460.64923118 C1390.71109166 1466.89921605 1390.70661357 1473.14903229 1390.69086703 1479.39900254 C1390.68763408 1481.65805098 1390.68953907 1483.91711342 1390.69693035 1486.17615207 C1390.70618248 1489.22181406 1390.69727456 1492.26687788 1390.68349653 1495.31250942 C1390.69415201 1496.64308372 1390.69415201 1496.64308372 1390.70502274 1498.0005383 C1390.64972171 1503.99277526 1390.64972171 1503.99277526 1388.78330917 1506.13238486 C1388.29605796 1506.54604596 1387.80880675 1506.95970707 1387.30679035 1507.38590336 C1384.85228474 1505.21539013 1383.87849862 1503.58222994 1382.99429035 1500.44840336 C1381.45412159 1496.09922213 1379.49512499 1494.48007068 1375.30679035 1492.38590336 C1374.15179035 1492.15902836 1372.99679035 1491.93215336 1371.80679035 1491.69840336 C1367.94789473 1490.2513175 1367.56803927 1489.70234358 1365.5138216 1486.36246586 C1362.41937886 1481.51193889 1359.03895437 1476.97709671 1355.49429035 1472.44840336 C1354.57462482 1471.26891117 1354.57462482 1471.26891117 1353.6363802 1470.06559086 C1349.70094818 1465.05704736 1345.64521839 1460.26178483 1341.3028841 1455.60074711 C1339.23162602 1453.30250184 1337.37038932 1450.90766601 1335.49429035 1448.44840336 C1331.93677773 1443.91613228 1327.9572614 1440.17219975 1323.66787434 1436.35978031 C1320.11154574 1433.18422463 1316.99980584 1429.85013622 1313.9356966 1426.21012211 C1311.6371816 1423.63600579 1309.08138967 1421.44569781 1306.4513216 1419.21793461 C1304.14140806 1417.24462049 1301.91590874 1415.19450999 1299.68179035 1413.13590336 C1294.03374261 1408.04141619 1288.08129529 1403.38637389 1282.0606966 1398.74576664 C1280.40281448 1397.46035414 1278.75923761 1396.158922 1277.11929035 1394.85074711 C1262.19104576 1383.07609418 1245.88955372 1373.61915818 1229.30679035 1364.38590336 C1228.3332259 1363.84159672 1227.35966145 1363.29729008 1226.35659504 1362.7364893 C1223.40680191 1361.09087598 1220.45177614 1359.45514545 1217.49429035 1357.82340336 C1216.14331257 1357.07232304 1216.14331257 1357.07232304 1214.7650423 1356.30606937 C1209.70229301 1353.536065 1204.74338117 1351.31520201 1199.30679035 1349.38590336 C1197.5683103 1348.61490362 1195.837942 1347.82514532 1194.11929035 1347.01090336 C1187.95598987 1344.17287873 1181.67207903 1341.73100971 1175.30679035 1339.38590336 C1174.18723957 1338.9701807 1174.18723957 1338.9701807 1173.0450716 1338.54605961 C1166.3134401 1336.17396089 1159.35565966 1334.59104114 1152.42837238 1332.90641117 C1150.3524708 1332.39711057 1148.28038283 1331.8747185 1146.2091341 1331.34684086 C1134.89822484 1328.46508925 1123.68266896 1325.66692328 1112.05679035 1324.44840336 C1105.78657993 1323.78303152 1099.65866107 1322.77926171 1093.49429035 1321.44840336 C1092.7353548 1321.29057377 1091.97641926 1321.13274418 1091.19448566 1320.97013187 C1087.25892538 1320.08244835 1084.30187414 1319.14515378 1081.30679035 1316.38590336 C1083.16989054 1311.68131518 1086.70985995 1309.65086383 1090.7013216 1306.77652836 C1094.05853096 1303.69615036 1096.04509722 1300.30623066 1098.30679035 1296.38590336 C1098.71904865 1295.713335 1099.13130695 1295.04076664 1099.55605793 1294.34781742 C1114.7544186 1269.3682748 1114.04465504 1242.66726116 1113.9367254 1214.38472472 C1113.92210361 1209.08093525 1113.93680951 1203.77720787 1113.94761038 1198.47342032 C1113.96252512 1189.19778451 1113.95904178 1179.92230063 1113.94319248 1170.64666843 C1113.91968893 1156.85326216 1113.92499846 1143.05996945 1113.93590138 1129.26655282 C1113.95338158 1106.05343438 1113.94732757 1082.84038891 1113.92713642 1059.62727642 C1113.90717454 1036.64017771 1113.89631964 1013.6531072 1113.89799213 990.66599941 C1113.89808546 989.21998134 1113.89817806 987.77396326 1113.89826994 986.32794519 C1113.89865518 980.51645538 1113.89910671 974.70496559 1113.89964133 968.89347579 C1113.90111328 952.65009762 1113.90090699 936.40671969 1113.89944935 920.16334152 C1113.89938365 919.4237801 1113.89931795 918.68421868 1113.89925026 917.9222463 C1113.89704503 894.37146842 1113.88758322 870.82069935 1113.8728838 847.26992607 C1113.87216961 846.12485156 1113.87216961 846.12485156 1113.87144099 844.95664423 C1113.86367935 832.5611972 1113.85546892 820.16575046 1113.84723338 807.77030373 C1113.81459689 758.60643506 1113.8015375 709.44260473 1113.80776691 660.27872562 C1113.80796086 658.72444182 1113.80815436 657.17015801 1113.8083474 655.61587421 C1113.80863676 653.28666431 1113.80892616 650.9574544 1113.80921651 648.6282445 C1113.81027549 640.11884633 1113.8112885 631.60944815 1113.81224537 623.10004997 C1113.81233276 622.33689804 1113.81242015 621.57374611 1113.81251018 620.78746837 C1113.81718109 579.5595815 1113.80739863 538.3316993 1113.79240751 497.10381526 C1113.79188176 495.64978658 1113.79135637 494.19575791 1113.79083133 492.74172924 C1113.79044159 491.66360654 1113.79044159 491.66360654 1113.79004399 490.56370359 C1113.78951994 489.11369028 1113.78899631 487.66367697 1113.78847311 486.21366366 C1113.78716845 482.6014594 1113.78585085 478.98925514 1113.78450793 475.3770509 C1113.77866983 459.55915286 1113.77465249 443.74125742 1113.77563 427.9233582 C1113.77569451 426.85564298 1113.77569451 426.85564298 1113.77576033 425.76635775 C1113.77598583 422.1829168 1113.7762399 418.59947585 1113.77650193 415.0160349 C1113.77836758 389.08707696 1113.77025871 363.15815944 1113.74486047 337.22921184 C1113.73171331 323.52285278 1113.72667427 309.81654903 1113.73349901 296.11018502 C1113.73721826 286.94794782 1113.72997206 277.78576098 1113.71390663 268.62353722 C1113.70505687 263.40810709 1113.70080078 258.19279052 1113.7098338 252.97735808 C1115.05311032 219.7279404 1115.05311032 219.7279404 1107.0763216 188.03043461 C1106.30679035 186.38590336 1106.30679035 186.38590336 1106.30679035 184.38590336 C1105.64679035 184.38590336 1104.98679035 184.38590336 1104.30679035 184.38590336 C1104.03028645 185.5789307 1104.03028645 185.5789307 1103.7481966 186.79605961 C1101.36014184 196.71975384 1098.59051754 206.52331422 1095.74429035 216.32340336 C1095.45124516 217.33541309 1095.45124516 217.33541309 1095.15227985 218.36786747 C1093.0098739 225.7564285 1090.8069142 233.10918508 1088.30679035 240.38590336 C1087.64679035 240.38590336 1086.98679035 240.38590336 1086.30679035 240.38590336 C1086.20366535 241.39652836 1086.10054035 242.40715336 1085.99429035 243.44840336 C1085.40212073 246.83992028 1084.47627761 249.3625914 1083.09805012 252.47403812 C1081.77227522 255.67741462 1080.86888671 258.98968989 1079.93179035 262.32340336 C1079.4966967 263.8354403 1079.06047226 265.34715225 1078.6231966 266.85855961 C1078.40421711 267.61668949 1078.18523762 268.37481937 1077.95962238 269.15592289 C1076.3833086 274.54038441 1074.67503979 279.88444194 1072.98354816 285.23355961 C1072.24774406 287.57369272 1071.52291589 289.91707346 1070.79897785 292.26090336 C1066.44608337 306.29039591 1066.44608337 306.29039591 1064.18179035 311.63590336 C1062.49377506 315.62575768 1061.37387852 319.69602066 1060.30679035 323.88590336 C1059.00167624 329.01001335 1057.43861342 333.8541859 1055.3810091 338.72574711 C1052.18726417 346.63462092 1049.45085262 354.83833773 1047.79678059 363.20938969 C1047.31540893 365.34762003 1046.70223354 367.3657655 1045.9981966 369.44059086 C1045.73136066 370.22772465 1045.46452473 371.01485844 1045.18960285 371.82584476 C1043.93867328 375.45340213 1042.67255259 379.07549068 1041.40127277 382.69596195 C1038.48318246 391.00910213 1035.6205704 399.31393043 1033.0997591 407.75699711 C1032.38327021 410.13235192 1031.61168358 412.47686278 1030.80679035 414.82340336 C1029.12502318 419.77730447 1027.75573604 424.81536341 1026.36929035 429.85855961 C1025.60212003 432.40545227 1024.78570326 434.82167627 1023.8341341 437.29605961 C1022.26560391 441.38969694 1021.05279799 445.54269896 1019.86929035 449.76090336 C1018.52834072 454.44690362 1017.15819924 459.01999905 1015.24429035 463.51090336 C1013.00632647 468.77192328 1011.69622485 474.23657088 1010.3341341 479.77262211 C1009.27868671 483.48474698 1007.83852701 486.84775124 1006.30679035 490.38590336 C1005.6222202 492.62442171 1004.97616898 494.87508514 1004.36929035 497.13590336 C1003.16911445 501.46201268 1001.89125447 505.68552004 1000.30679035 509.88590336 C997.90815083 516.27286898 996.13434332 522.817418 994.30679035 529.38590336 C992.89408928 534.40489663 991.39784684 539.26643486 989.36929035 544.07340336 C987.15135735 549.4404626 985.74340937 554.9583537 984.3341341 560.57730961 C982.21563119 568.43107517 979.37658422 576.05471943 976.69009113 583.72843266 C973.13631807 593.89732173 969.67885114 604.00390158 967.0919466 614.47184086 C966.36395272 617.17374851 965.46535356 619.62802768 964.36929035 622.19840336 C962.08840097 627.55041152 960.63634944 633.09200835 959.14492512 638.70353031 C957.93625412 643.23068852 956.58071768 647.67065643 955.07217121 652.10685062 C954.29582826 654.41854486 953.56263071 656.73988874 952.8419466 659.06949711 C950.54150072 666.50087722 948.24561918 673.84338529 945.2325716 681.02262211 C943.7099261 684.90954417 942.5682295 688.90793242 941.3731966 692.90543461 C940.25617592 696.55109552 939.03962815 700.15287348 937.80679035 703.76090336 C935.66153688 710.13085847 933.88951926 716.5343143 932.2013216 723.03824711 C931.30955046 726.37557406 930.28685479 729.62090904 929.1544466 732.88199711 C927.9757749 736.36369556 926.895555 739.87534044 925.80679035 743.38590336 C923.15353035 751.9096235 920.33995231 760.33115145 917.2716341 768.71402836 C916.18345569 771.72744549 915.15825301 774.75631371 914.15835285 777.79996586 C913.47319214 779.88059152 912.77826925 781.95800116 912.08022785 784.03434086 C911.86036213 784.68886234 911.64049641 785.34338383 911.41396809 786.0177393 C910.77332114 787.92449893 910.13187165 789.83098886 909.4903841 791.73746586 C908.34481844 795.26868147 907.31294905 798.81270099 906.30679035 802.38590336 C900.79649559 821.32715566 900.79649559 821.32715566 898.30679035 827.82340336 C896.34337088 832.98346444 894.90609694 838.2584622 893.43179035 843.57340336 C891.39343389 850.916563 889.05749175 858.02026573 886.28262043 865.11539555 C884.72902423 869.12595035 883.54482383 873.01129879 882.76723957 877.23624516 C882.3016921 879.40970512 881.68099187 881.44569061 880.9669466 883.54996586 C880.69938557 884.33846928 880.43182453 885.12697269 880.15615559 885.93937016 C879.06151654 889.09239628 877.93608828 892.23381803 876.80776691 895.37491703 C873.87357897 903.57641392 871.21634211 911.78650403 868.99282551 920.20987797 C866.90549668 928.10416682 864.18504867 935.75183444 861.45205402 943.4420557 C858.03481109 953.09276187 854.96615766 962.7471049 852.32241535 972.63590336 C851.15239029 976.95599591 849.7876021 981.16519393 848.30679035 985.38590336 C843.98382626 998.10893986 839.90399155 1010.92084148 835.95522785 1023.76480961 C833.63684613 1031.30092911 831.14143462 1038.73999321 828.47109699 1046.15909672 C826.47165376 1051.77294301 824.8184274 1057.44849027 823.23647785 1063.19449711 C822.3799694 1066.13469628 821.39403238 1068.96201833 820.30679035 1071.82340336 C818.67937162 1076.13352016 817.44289337 1080.48835263 816.30679035 1084.94840336 C814.96493169 1090.15797227 813.34540392 1094.98406599 811.24429035 1099.92496586 C809.80417838 1103.70525979 808.94548761 1107.59950157 808.0138216 1111.53043461 C807.2326024 1114.68552429 806.25286618 1117.71302047 805.1856966 1120.78043461 C804.24334492 1123.57398382 803.37878402 1126.38816153 802.51699543 1129.20743656 C800.9354661 1134.37408363 799.35914263 1139.46934169 797.24429035 1144.44840336 C795.77199649 1147.9150395 794.7838835 1151.35138252 793.91274738 1155.01578617 C790.70062524 1168.34038625 790.70062524 1168.34038625 785.30679035 1172.38590336 C775.01657704 1175.39243449 763.54254628 1174.76389855 752.90835285 1174.82730961 C752.00227661 1174.83421251 751.09620037 1174.84111542 750.16266727 1174.8482275 C745.38241932 1174.88378661 740.60228533 1174.907481 735.82192707 1174.92130375 C730.90227928 1174.93795732 725.98404197 1174.99661343 721.06487179 1175.0644474 C717.25922052 1175.10923851 713.45391109 1175.12279737 709.64801884 1175.1279211 C707.83392551 1175.13579318 706.01984203 1175.15537291 704.20600986 1175.18714428 C690.1253781 1175.41786476 690.1253781 1175.41786476 685.68211079 1172.89652348 C683.87660317 1171.141162 682.59332461 1169.54086032 681.30679035 1167.38590336 C680.72629681 1166.53843792 680.72629681 1166.53843792 680.13407612 1165.67385197 C677.43144324 1161.41937069 675.88441232 1156.7771919 674.36929035 1152.01090336 C674.11043049 1151.21764652 673.85157063 1150.42438969 673.58486652 1149.60709476 C671.99410232 1144.68556097 670.53216922 1139.73669415 669.11929035 1134.76090336 C666.48040234 1125.46846716 663.23871091 1116.37921781 660.06719685 1107.25910282 C656.91538946 1098.18669505 653.88490121 1089.11357476 651.30679035 1079.85855961 C649.39291705 1073.21233552 647.07808451 1066.70705864 644.7572298 1060.19400883 C641.95600963 1052.32101664 639.41136732 1044.47286064 637.2013216 1036.41324711 C636.14944006 1032.85338599 634.79919923 1029.49306501 633.36050129 1026.07560062 C632.24080918 1023.21748015 631.32463412 1020.3473196 630.4356966 1017.40934086 C629.91386799 1015.69267216 629.91386799 1015.69267216 629.38149738 1013.94132328 C629.02684406 1012.76803471 628.67219074 1011.59474613 628.30679035 1010.38590336 C627.29206366 1007.05404802 626.27549527 1003.72276204 625.25796223 1000.39176273 C624.57639027 998.16056668 623.89673405 995.92878461 623.21889973 993.69645023 C622.71906574 992.06353031 622.71906574 992.06353031 622.2091341 990.39762211 C621.76815388 988.95068974 621.76815388 988.95068974 621.31826496 987.47452641 C620.32307185 984.43562029 619.21639297 981.46086043 618.08219624 978.47213078 C616.80104736 975.02520322 615.64950799 971.53680786 614.49429035 968.04605961 C614.23929768 967.27966663 613.984305 966.51327366 613.72158527 965.72365665 C612.91522693 963.29904361 612.11096257 960.87374224 611.30679035 958.44840336 C610.76786852 956.82661182 610.22880711 955.20486665 609.68960285 953.58316898 C608.46200546 949.89039577 607.23582793 946.19715456 606.01092243 942.50348759 C605.5250336 941.04224111 605.03718013 939.58164695 604.54772663 938.12159061 C602.9595234 933.38131684 601.42415723 928.62871044 599.93960285 923.85465336 C599.62214603 922.83522648 599.62214603 922.83522648 599.29827595 921.79520512 C598.6333851 919.65909969 597.96986532 917.5225731 597.30679035 915.38590336 C597.09292683 914.69689945 596.8790633 914.00789555 596.65871906 913.29801273 C596.23104741 911.92009515 595.8034147 910.54216548 595.37582111 909.16422367 C594.52540072 906.42469282 593.67380867 903.68552702 592.82192707 900.94645023 C592.39079606 899.55867534 591.96047329 898.17064913 591.53091145 896.78238773 C588.51671379 886.97965641 588.51671379 886.97965641 585.04458332 877.3326807 C583.37218246 872.91980033 581.92323856 868.4248883 580.43179035 863.94840336 C580.07882893 862.89161381 579.7258675 861.83482426 579.36221027 860.74601078 C576.92327889 853.38792609 574.66858728 846.00261115 572.6075716 838.53043461 C571.59182547 835.08977954 570.31678856 831.78323594 569.0060091 828.44449711 C566.22665207 821.31742792 563.83762611 814.09475406 561.50454426 806.81266117 C560.81154134 804.65072483 560.11235423 802.49086461 559.4122591 800.33121586 C556.82455656 792.31558573 554.34680735 784.27600282 552.02444172 776.17917728 C550.42447663 770.63723217 548.53342596 765.25233906 546.55679035 759.83512211 C543.31913355 750.90121287 540.42373249 741.89207817 537.80679035 732.76090336 C536.01452364 726.51572153 533.88574063 720.5054316 531.4825716 714.46402836 C529.93620358 710.41572935 528.70524847 706.30259697 527.4669466 702.15152836 C526.01852578 697.45025673 524.44329461 692.79633011 522.86929035 688.13590336 C520.69053517 681.67051506 518.61880821 675.19594886 516.74429035 668.63590336 C515.00291061 662.5699097 513.0303247 656.61847021 510.89297199 650.68058109 C508.45449993 643.87659328 506.13732541 637.03316279 503.8447237 630.17896366 C503.20195692 628.2586524 502.55581946 626.33947041 501.90957355 624.42032719 C499.88077582 618.34114963 497.96427971 612.26148691 496.25210285 606.08512211 C494.8723739 601.15381097 493.23540728 596.47994505 491.26235676 591.75943851 C489.59252987 587.61174894 488.31352254 583.3428123 486.99429035 579.07340336 C484.63702117 571.54462657 482.20723324 564.04741459 479.68179035 556.57340336 C477.57794351 550.33805154 475.6025238 544.09166246 473.80679035 537.76090336 C471.84079603 530.84582847 469.46994986 524.12914868 466.89272785 517.4186182 C464.80500646 511.93834955 463.05298899 506.39353838 461.35342121 500.78141117 C459.63214134 495.197189 457.7413325 489.6710029 455.86929035 484.13590336 C453.03951309 475.72628361 450.33527752 467.31054421 447.91299152 458.77506351 C446.62092983 454.28039264 445.03084127 450.01589107 443.2091341 445.71402836 C441.88258517 442.29141727 440.9970505 438.78136357 440.1153841 435.22184086 C439.31163903 432.40290888 438.30523688 429.70616665 437.25918293 426.96988773 C435.00314087 420.84890614 432.99315858 414.6371409 430.93179035 408.44840336 C430.68490467 407.70913609 430.43801899 406.96986881 430.18365192 406.2081995 C427.48432515 398.11790112 424.81081906 390.03343884 422.49429035 381.82340336 C420.78219995 375.78766437 418.72623805 369.9804375 416.4723177 364.13321781 C413.78452035 357.12905195 411.45063275 349.99491539 409.64272785 342.71012211 C408.4093202 337.93252499 406.92180071 334.6642198 403.86929035 330.76090336 C399.07928703 324.3004367 397.88528973 317.09068683 396.30679035 309.38590336 C395.64984519 306.32125745 394.97910884 303.2597087 394.30679035 300.19840336 C394.06327839 299.07426029 394.06327839 299.07426029 393.81484699 297.92740726 C392.34951826 291.28293699 390.42265898 284.85340847 388.30679035 278.38590336 C382.49810044 292.92473645 382.5947894 307.21628743 382.68305666 322.68372931 C382.69859248 326.39247263 382.68476062 330.1011341 382.67483753 333.80988079 C382.66145687 340.29577243 382.66646829 346.78144238 382.68384647 353.26732159 C382.70961724 362.9123493 382.70653109 372.55722078 382.69780389 382.20227131 C382.68396521 398.43494461 382.69358881 414.66752466 382.71700954 430.90018368 C382.74018549 446.97675643 382.75381718 463.05328792 382.75452709 479.12987804 C382.75458054 480.13119864 382.75463399 481.13251924 382.75468906 482.16418288 C382.75487768 486.229165 382.75499923 490.29414712 382.75503138 494.35912924 C382.755372 532.47126216 382.78240978 570.5833324 382.82322348 608.69544135 C382.85934506 642.53310437 382.87848628 676.37073096 382.88125324 710.20841312 C382.88134475 711.28427258 382.88143625 712.36013203 382.88153053 713.46859328 C382.88180697 716.72344264 382.88207845 719.978292 382.88234955 723.23314136 C382.8827126 727.5566142 382.883086 731.88008704 382.88346672 736.20355988 C382.88360206 737.80386727 382.88360206 737.80386727 382.88374014 739.43650411 C382.8867244 772.80288312 382.90419436 806.16925538 382.92415433 839.53562799 C382.9307633 850.59777083 382.93645568 861.65991261 382.93934464 872.7220571 C382.93960582 873.71660719 382.939867 874.71115728 382.94013608 875.73584525 C382.94052477 877.22450172 382.94052477 877.22450172 382.94092131 878.74323206 C382.94592421 897.87806909 382.95718132 917.01287925 382.98222161 936.14770155 C382.99459503 945.73101405 383.00167187 955.31429389 383.00087924 964.89761456 C383.00091718 971.30796439 383.00828883 977.71827947 383.02150589 984.12861559 C383.02883317 987.7748641 383.03316449 991.42104257 383.02863009 995.06729727 C383.01263482 1009.64646589 383.21918455 1023.94271789 385.30679035 1038.38590336 C385.47264545 1039.65368152 385.63850054 1040.92145967 385.80938154 1042.22765535 C386.51408597 1047.54766582 387.42749167 1052.34734246 389.52554035 1057.28824711 C390.52866554 1059.98163823 391.11155898 1062.70831603 391.74429035 1065.51090336 C392.90526073 1070.36864784 394.32093212 1073.43686505 397.30679035 1077.38590336 C398.8328893 1080.67906425 399.69415448 1083.81219413 400.30679035 1087.38590336 C400.96679035 1087.38590336 401.62679035 1087.38590336 402.30679035 1087.38590336 C403.34853729 1088.9287822 404.31306625 1090.52390662 405.24429035 1092.13590336 C415.12413665 1108.16735207 432.11279754 1125.65735954 450.31460285 1131.65152836 C452.59341971 1132.49156281 454.6124158 1133.59806269 456.74429035 1134.76090336 C463.29652529 1138.13382679 470.33382423 1139.88754989 477.40469074 1141.83854008 C479.08849446 1142.3230848 480.75255969 1142.87510078 482.4122591 1143.43668461 C490.87133748 1146.21071436 499.51071035 1147.38896193 508.35561848 1147.95157719 C517.69933653 1148.57476686 524.43057679 1149.41780275 531.30679035 1156.38590336 C532.17304035 1157.12840336 533.03929035 1157.87090336 533.93179035 1158.63590336 C536.47217794 1163.71667853 536.24676399 1169.35989195 534.5763216 1174.73746586 C532.62749938 1178.98510287 530.35660554 1181.89370939 526.30679035 1184.38590336 C525.31679035 1184.38590336 524.32679035 1184.38590336 523.30679035 1184.38590336 C523.30679035 1185.04590336 523.30679035 1185.70590336 523.30679035 1186.38590336 C472.65813085 1186.43724445 422.00946952 1186.48500811 371.36079121 1186.51293278 C370.23685608 1186.51355403 370.23685608 1186.51355403 369.09021518 1186.51418784 C352.80719351 1186.52316599 336.52417157 1186.53147662 320.24114921 1186.53909935 C312.25627497 1186.54284145 304.27140081 1186.54673109 296.28652668 1186.55069828 C295.49192416 1186.55109056 294.69732165 1186.55148283 293.87864026 1186.551887 C268.110616 1186.56467727 242.34261143 1186.58721584 216.5745991 1186.61479502 C190.10065402 1186.64307837 163.62671984 1186.66155634 137.15275989 1186.66764833 C133.4158413 1186.66851283 129.67892275 1186.66948974 125.9420042 1186.67053509 C125.20650526 1186.67073736 124.47100632 1186.67093963 123.71321954 1186.67114802 C111.86067844 1186.67469695 100.00817102 1186.68862126 88.15564367 1186.70639946 C76.24774493 1186.72404024 64.33987967 1186.73081256 52.43196831 1186.72640749 C45.97678567 1186.72447932 39.52170209 1186.72750778 33.0665369 1186.74351978 C27.1627565 1186.75805773 21.2591423 1186.75889557 15.35535445 1186.74860004 C13.21395735 1186.74732652 11.07255011 1186.75118357 8.93117312 1186.76055291 C6.03073291 1186.77251058 3.13090062 1186.76615316 0.23047066 1186.75504684 C-1.0300944 1186.76686841 -1.0300944 1186.76686841 -2.31612542 1186.77892879 C-6.92670313 1186.738759 -9.9511737 1186.38181869 -13.69320965 1183.38590336 C-15.67791296 1179.93018466 -16.66122817 1176.22250436 -17.69320965 1172.38590336 C-17.95231121 1171.4564893 -18.21141277 1170.52707523 -18.4783659 1169.56949711 C-19.3159965 1165.2076133 -19.31727823 1162.53055976 -17.16195965 1158.57730961 C-11.54832914 1151.5704411 -6.29063903 1149.76562183 2.30679035 1148.38590336 C4.68217818 1147.89804483 7.05089134 1147.38295182 9.42055988 1146.86808109 C15.19956404 1145.61463386 20.97615907 1144.43569875 26.80679035 1143.44840336 C31.44806198 1142.55087522 35.43860263 1140.60594694 39.6778841 1138.56168461 C43.17320342 1136.99839915 46.56530319 1136.16243843 50.30679035 1135.38590336 C50.30679035 1134.72590336 50.30679035 1134.06590336 50.30679035 1133.38590336 C52.4062981 1131.95497085 54.50668369 1130.629973 56.68179035 1129.32340336 C63.20086467 1125.27423765 68.78696155 1120.73604484 74.30679035 1115.38590336 C74.90620441 1114.85996586 75.50561848 1114.33402836 76.1231966 1113.79215336 C81.99690703 1108.44993877 85.98520386 1101.62131653 90.24209309 1094.98941898 C91.30679035 1093.38590336 91.30679035 1093.38590336 92.9825716 1091.24918461 C94.57376849 1089.01024385 95.361736 1086.85932519 96.24429035 1084.26090336 C97.507689 1080.61537137 98.8510839 1077.0572482 100.36929035 1073.51090336 C102.41943946 1068.49045948 103.57551466 1063.36982397 104.6935091 1058.07340336 C105.30679035 1055.38590336 105.30679035 1055.38590336 106.30679035 1053.38590336 C107.39954969 1043.14934698 107.4518879 1032.85812384 107.43821812 1022.57444668 C107.43987238 1021.03184445 107.44196074 1019.48924263 107.44443822 1017.9466415 C107.44995508 1013.73333199 107.4493417 1009.520043 107.44766063 1005.30673104 C107.44692495 1000.71304953 107.45196312 996.11937358 107.45623565 991.52569449 C107.46379023 982.4263954 107.46600741 973.32710218 107.4665647 964.22780029 C107.46748084 953.32393309 107.47415567 942.42007128 107.48091153 931.51620642 C107.49694658 905.16944162 107.50287155 878.82267741 107.50766028 852.47590861 C107.50999828 840.00809545 107.51360111 827.54028276 107.51735565 815.07246996 C107.52998673 773.04624354 107.54080129 731.02001718 107.54419611 688.99378889 C107.54435835 686.98682206 107.54452391 684.97985524 107.5446905 682.97288841 C107.54502428 678.94810684 107.54535476 674.92332528 107.54568505 670.89854372 C107.54607194 666.18683282 107.54646155 661.47512192 107.54685612 656.76341102 C107.54696854 655.41489888 107.54707995 654.06638674 107.54719037 652.7178746 C107.55073971 609.40924242 107.56581982 566.10062683 107.58912811 522.79200098 C107.61413466 476.30910092 107.62851375 429.82620806 107.62972617 383.34330046 C107.62989762 378.31343023 107.63011305 373.28356 107.6303606 368.25368977 C107.63041637 367.01523402 107.63047214 365.77677828 107.6305296 364.50079358 C107.63167939 344.5859425 107.64269501 324.67110863 107.65724766 304.75626335 C107.67162412 284.73625675 107.67484309 264.71627216 107.66680768 244.69626181 C107.66235725 232.80958067 107.66618868 220.92297069 107.68204619 209.03629893 C107.6918189 201.08670014 107.69059611 193.13715104 107.68060996 185.18755268 C107.67523456 180.66455294 107.67445382 176.14168953 107.68711868 171.61870126 C107.73333179 154.02130437 107.77051934 136.72557902 104.30679035 119.38590336 C104.07329923 118.19184923 103.83980811 116.99779509 103.5992415 115.7675575 C102.21440863 109.17097625 99.6441091 103.32978406 96.7091341 97.28043461 C95.30679035 94.38590336 95.30679035 94.38590336 93.86929035 90.76090336 C86.57428556 75.003693 73.81008256 61.30980826 58.30679035 53.38590336 C58.30679035 52.72590336 58.30679035 52.06590336 58.30679035 51.38590336 C57.64679035 51.30340336 56.98679035 51.22090336 56.30679035 51.13590336 C53.73139588 50.49205474 51.99379079 49.78649001 49.68179035 48.57340336 C34.10299573 40.61154706 16.74195336 38.23590019 -0.5342741 37.06900883 C-1.41172283 37.0060059 -2.28917156 36.94300297 -3.19320965 36.87809086 C-3.96664715 36.83023441 -4.74008465 36.78237797 -5.53695965 36.73307133 C-8.90206753 36.19127067 -11.07443053 35.22518664 -13.10727215 32.46793461 C-16.70648003 25.72232241 -19.79083866 19.20651007 -18.69320965 11.38590336 C-14.27020453 3.3830747 -9.20168707 -0.07946568 0 0 Z " fill="#FEFEFE" transform="translate(563.6932096481323,1571.6140966415405)"/>
<path d="M0 0 C0.9163623 -0.00974854 1.83272461 -0.01949707 2.77685547 -0.02954102 C27.85146915 -0.24121258 51.96166453 0.26638402 76.02734375 8.1484375 C78.81357677 9.04298182 81.49369539 9.74150354 84.359375 10.30078125 C118.28395359 17.29486585 153.43601302 43.25241927 177.421875 67.23828125 C178.58306202 68.22394 179.7501387 69.20268694 180.921875 70.17578125 C184.1639957 72.90672526 186.71370071 75.97458403 189.421875 79.23828125 C190.329375 79.96015625 191.236875 80.68203125 192.171875 81.42578125 C196.4600841 84.87806099 199.66645846 89.2645713 203.07226562 93.55615234 C204.51850179 95.35871515 205.9906821 97.13752084 207.46875 98.9140625 C217.99375168 111.60555461 227.34093207 124.94385973 236.359375 138.73828125 C236.89111328 139.55071289 237.42285156 140.36314453 237.97070312 141.20019531 C247.421875 155.8081853 247.421875 155.8081853 247.421875 160.23828125 C248.081875 160.23828125 248.741875 160.23828125 249.421875 160.23828125 C251.85348105 163.6051204 252.421875 164.97178489 252.421875 169.23828125 C253.081875 169.23828125 253.741875 169.23828125 254.421875 169.23828125 C256.36272956 173.09076741 258.29895295 176.9455634 260.234375 180.80078125 C260.78158203 181.88681641 261.32878906 182.97285156 261.89257812 184.09179688 C265.3291572 190.94412728 268.48428048 197.79473409 271.296875 204.92578125 C272.80233542 208.71241642 274.34877136 212.47923911 275.921875 216.23828125 C279.76255742 225.43724097 283.37968794 234.70285771 286.8515625 244.046875 C287.85306765 246.73679125 288.87789036 249.41530527 289.9296875 252.0859375 C293.16214139 260.35945504 295.80243802 268.6937382 298.16967773 277.25537109 C299.56796489 282.30380362 301.06920679 287.28988217 302.72363281 292.26000977 C305.78042994 301.46473617 307.93582315 310.70837646 309.77368164 320.23168945 C309.9618042 321.20066162 310.14992676 322.16963379 310.34375 323.16796875 C310.50456055 324.02632324 310.66537109 324.88467773 310.83105469 325.76904297 C311.45896066 328.39327478 312.40957621 330.74006632 313.421875 333.23828125 C314.36555178 336.72898316 315.09988548 340.26581931 315.859375 343.80078125 C316.19086548 345.3329126 316.19086548 345.3329126 316.52905273 346.89599609 C318.06747436 354.17150707 319.29947598 361.44895934 320.32568359 368.81225586 C321.17984181 374.87509254 322.28597372 380.85974646 323.484375 386.86328125 C324.93920304 394.20055677 326.05102438 401.49040816 326.73852539 408.93994141 C327.10598785 412.83232149 327.65432796 416.62672831 328.38671875 420.46875 C330.44846471 431.48999494 331.25945597 442.69970774 332.2175293 453.86114502 C332.35455673 455.45517347 332.49341244 457.04904575 332.6340332 458.64276123 C337.35874526 512.4351865 337.22705775 567.37867786 333.421875 621.23828125 C333.34807617 622.43308105 333.27427734 623.62788086 333.19824219 624.85888672 C332.66565041 633.16939348 331.70145637 641.36790456 330.546875 649.61328125 C330.18248998 652.26027228 329.81893627 654.90735822 329.45703125 657.5546875 C329.27930176 658.85422363 329.10157227 660.15375977 328.91845703 661.49267578 C328.47035012 664.87264446 328.05704925 668.25343042 327.66796875 671.640625 C326.22955423 684.13984568 324.13045082 696.35638376 321.5546875 708.671875 C320.44141385 714.0233221 319.56819481 719.36174295 318.87890625 724.78515625 C318.421875 727.23828125 318.421875 727.23828125 317.48095703 729.51171875 C316.34671776 732.43177043 315.66815794 735.2525699 315.01953125 738.31640625 C314.76880859 739.47785156 314.51808594 740.63929688 314.25976562 741.8359375 C313.74618111 744.25508873 313.23315286 746.67435813 312.72070312 749.09375 C311.44683751 754.99067265 310.04916541 760.68909587 308.0402832 766.37841797 C307.24069702 768.7831742 306.83242213 771.16905976 306.484375 773.67578125 C305.699433 778.40522169 304.24903163 782.43731876 302.36328125 786.828125 C301.1680547 789.88810336 300.55544176 792.94372755 299.9140625 796.15625 C299.15717806 799.35799131 297.76012478 802.24060174 296.421875 805.23828125 C294.87959551 809.45972055 293.56860409 813.75560678 292.26171875 818.0546875 C290.30052024 824.49590853 288.3502911 830.81283297 285.44921875 836.90625 C284.11317162 839.93902619 283.06449312 843.04310223 281.984375 846.17578125 C280.16770528 851.36307202 278.08791828 856.20262646 275.546875 861.0703125 C272.68342087 866.58842722 270.56722838 872.41517923 268.421875 878.23828125 C267.761875 878.23828125 267.101875 878.23828125 266.421875 878.23828125 C266.36 879.06328125 266.298125 879.88828125 266.234375 880.73828125 C265.33166434 884.62688102 263.82012132 887.06291303 261.578125 890.30859375 C260.38964859 892.29206452 259.86335218 893.98072747 259.421875 896.23828125 C258.761875 896.23828125 258.101875 896.23828125 257.421875 896.23828125 C257.18082031 897.06070313 256.93976562 897.883125 256.69140625 898.73046875 C255.19541941 902.86399548 253.2563572 906.53709745 251.109375 910.36328125 C250.67351074 911.14243896 250.23764648 911.92159668 249.78857422 912.72436523 C238.71342984 932.23097242 225.88356503 951.08971985 211.421875 968.23828125 C209.92022039 970.09110814 208.42023995 971.94529304 206.921875 973.80078125 C200.75056778 981.33514241 194.26734333 988.48122046 187.3203125 995.3046875 C185.42481807 997.23528367 183.67179741 999.2380899 181.921875 1001.30078125 C179.02728095 1004.65929444 175.93660775 1007.55293225 172.5546875 1010.4140625 C170.30487259 1012.33835474 168.15162248 1014.3466391 165.984375 1016.36328125 C143.67740982 1036.39194359 116.84816287 1053.55596486 88.421875 1063.23828125 C87.06071979 1063.74130255 85.70137016 1064.24923322 84.34375 1064.76171875 C76.41508167 1067.75460902 68.89213394 1070.43920022 60.421875 1071.23828125 C60.091875 1071.56828125 59.761875 1071.89828125 59.421875 1072.23828125 C58.01892634 1072.52350019 56.60451556 1072.75287028 55.1875 1072.95703125 C54.30191406 1073.08464844 53.41632812 1073.21226563 52.50390625 1073.34375 C51.56933594 1073.47394531 50.63476562 1073.60414062 49.671875 1073.73828125 C48.78371094 1073.86847656 47.89554688 1073.99867187 46.98046875 1074.1328125 C35.15092074 1075.80824205 23.36533235 1076.42499747 11.4284668 1076.42358398 C9.35770455 1076.42578302 7.28746662 1076.44406858 5.21679688 1076.46289062 C-2.9169855 1076.49682574 -10.60433959 1075.84702083 -18.578125 1074.23828125 C-20.36923235 1073.9225913 -22.16083249 1073.60967161 -23.953125 1073.30078125 C-25.82905646 1072.95158189 -27.70400004 1072.59704948 -29.578125 1072.23828125 C-30.71636719 1072.02300781 -31.85460938 1071.80773438 -33.02734375 1071.5859375 C-39.23371397 1070.34466346 -45.01469746 1068.9155777 -50.82421875 1066.3984375 C-52.99357315 1065.48453926 -55.14970351 1064.65364272 -57.36328125 1063.859375 C-64.59408718 1061.26140858 -71.40006489 1058.54563266 -78.05078125 1054.6328125 C-80.67045486 1053.13033299 -80.67045486 1053.13033299 -83.95703125 1051.80859375 C-87.6294523 1050.21602281 -91.03673481 1048.36944256 -94.453125 1046.30078125 C-95.08951904 1045.91672119 -95.72591309 1045.53266113 -96.3815918 1045.13696289 C-110.97959624 1036.18340213 -124.63127567 1025.87670993 -137.265625 1014.328125 C-139.22798014 1012.55471284 -141.22473909 1010.8567788 -143.265625 1009.17578125 C-146.45604911 1006.47733843 -149.06337578 1003.42597259 -151.7578125 1000.2421875 C-153.60138713 998.21267294 -155.53708532 996.49389707 -157.640625 994.73828125 C-160.97969458 991.90454979 -163.4388194 988.9396773 -165.96875 985.3828125 C-167.76973694 982.9829537 -169.73056424 980.81793041 -171.765625 978.61328125 C-197.69553646 950.12933844 -217.53438481 916.052581 -235.578125 882.23828125 C-236.08859375 881.2858252 -236.5990625 880.33336914 -237.125 879.35205078 C-238.63704515 876.52603458 -240.14060789 873.69569755 -241.640625 870.86328125 C-242.09381104 870.01386963 -242.54699707 869.16445801 -243.01391602 868.28930664 C-245.60333481 863.36051917 -247.67799102 858.46917333 -249.578125 853.23828125 C-250.35968325 851.61881416 -251.16840632 850.01188574 -252.015625 848.42578125 C-254.25233262 844.05919384 -255.93495059 839.64731423 -257.546875 835.01953125 C-258.59191661 832.2010857 -259.79700091 829.51926408 -261.078125 826.80078125 C-263.31008787 822.00922794 -265.00519674 817.16372749 -266.61328125 812.1328125 C-267.49675046 809.48240486 -268.4954557 806.9372538 -269.578125 804.36328125 C-271.66346004 799.27213125 -273.12529791 794.06400126 -274.58984375 788.765625 C-275.46305269 785.6489939 -276.40750983 782.57149776 -277.390625 779.48828125 C-279.86221295 771.57331508 -281.9333217 763.54785746 -284.02856445 755.52636719 C-285.2572928 750.87749928 -286.47767594 746.29716317 -288.22265625 741.8125 C-289.43863793 738.60609299 -290.17734828 735.73781185 -290.703125 732.36328125 C-291.25297158 728.67550685 -291.25297158 728.67550685 -292.578125 725.23828125 C-292.87782771 723.57656324 -293.14241681 721.90846722 -293.390625 720.23828125 C-294.06790816 715.99032144 -294.88746605 711.82360781 -295.89331055 707.64135742 C-301.3807988 684.57343308 -303.91048903 660.79830941 -306.32226562 637.24682617 C-306.40003235 636.48884735 -306.47779907 635.73086853 -306.55792236 634.94992065 C-306.76700436 632.89764289 -306.97202956 630.84495297 -307.17675781 628.79223633 C-307.4179798 626.65630659 -307.70237174 624.52369503 -308.07058716 622.40596008 C-308.98006334 616.72967702 -309.25338314 610.9946101 -309.6171875 605.26171875 C-309.68337721 604.21972887 -309.68337721 604.21972887 -309.75090408 603.15668869 C-310.8695793 585.06628852 -310.97411199 566.98272086 -310.953125 548.86328125 C-310.9530331 548.00147877 -310.95294121 547.13967628 -310.95284653 546.25175858 C-310.94573588 494.41045874 -308.56536035 442.13854264 -297.97607422 391.25146484 C-297.36458345 388.15799683 -296.9078738 385.04556955 -296.453125 381.92578125 C-295.87254044 377.95336057 -295.11018608 374.14968725 -294.06640625 370.27734375 C-293.49263469 367.88127372 -293.13280703 365.48722279 -292.765625 363.05078125 C-291.3996386 354.5321889 -289.24286583 346.19444566 -287.19970703 337.81884766 C-286.64051843 335.49731447 -286.10090183 333.17283581 -285.57421875 330.84375 C-281.74201823 313.91686429 -276.69193187 297.3790584 -271.390625 280.86328125 C-271.17452576 280.18738953 -270.95842651 279.5114978 -270.73577881 278.81512451 C-270.1104503 276.863698 -269.47997876 274.91401387 -268.84765625 272.96484375 C-268.48260986 271.83643066 -268.11756348 270.70801758 -267.74145508 269.54541016 C-266.50266702 266.02376838 -265.06788163 262.66034212 -263.578125 259.23828125 C-262.92990276 257.32934332 -262.3038405 255.41269727 -261.703125 253.48828125 C-260.06067286 248.45435351 -258.05195923 243.74220999 -255.796875 238.95703125 C-254.57531924 236.23202225 -253.56013687 233.49510564 -252.578125 230.67578125 C-250.98336465 226.1487196 -249.01373176 221.97811574 -246.8046875 217.72265625 C-245.54208229 215.16527755 -244.48356228 212.58446676 -243.453125 209.92578125 C-242.10240298 206.44091843 -240.50167394 203.44419615 -238.578125 200.23828125 C-237.51673756 197.72316472 -236.52081373 195.18930528 -235.54296875 192.640625 C-234.65817505 190.43759615 -233.672181 188.34373124 -232.578125 186.23828125 C-231.918125 186.23828125 -231.258125 186.23828125 -230.578125 186.23828125 C-230.44470703 185.22894531 -230.44470703 185.22894531 -230.30859375 184.19921875 C-229.38130985 180.44049576 -227.71667723 177.24622426 -225.890625 173.86328125 C-225.30003296 172.76330811 -225.30003296 172.76330811 -224.69750977 171.64111328 C-201.56960822 129.18643382 -170.65453523 85.47817717 -132.21484375 55.3125 C-129.28750664 53.00966147 -126.4712504 50.59627723 -123.640625 48.17578125 C-113.42120816 39.66397905 -102.03783495 32.92337963 -90.578125 26.23828125 C-89.60746094 25.66851563 -88.63679688 25.09875 -87.63671875 24.51171875 C-81.88070804 21.24411441 -76.04024667 18.74388274 -69.83203125 16.45703125 C-66.70195341 15.28466116 -63.64584913 14.00149076 -60.578125 12.67578125 C-41.81909549 4.8858091 -20.3210189 0.17842105 0 0 Z " fill="#000000" transform="translate(2810.578125,1618.76171875)"/>
<path d="M0 0 C1.87315776 0.22429397 3.74870241 0.42869636 5.625 0.625 C12.75169155 1.60186738 19.53069983 3.38110066 26.4375 5.375 C27.46762207 5.66713379 28.49774414 5.95926758 29.55908203 6.26025391 C35.24869053 7.94500043 39.94524099 9.91678126 45 13 C46.12535156 13.45761719 47.25070313 13.91523438 48.41015625 14.38671875 C52.8381814 16.37668 56.52214649 18.96849434 60.4375 21.8125 C61.14970703 22.32103516 61.86191406 22.82957031 62.59570312 23.35351562 C64.73974386 24.88998078 66.87114958 26.44257271 69 28 C69.72396973 28.52327881 70.44793945 29.04655762 71.19384766 29.58569336 C74.67342183 32.13473959 77.79785758 34.53826233 80.5 37.9375 C82.7087552 40.70431835 85.07178851 42.92147664 87.78125 45.1796875 C92.2519824 49.03801197 95.60169091 53.38313063 99 58.1875 C99.58394531 58.98091797 100.16789062 59.77433594 100.76953125 60.59179688 C105 66.49166606 105 66.49166606 105 71 C105.66 71 106.32 71 107 71 C110.82980753 77.80401976 113.75011671 84.64272349 116.125 92.0625 C116.35396973 92.76157471 116.58293945 93.46064941 116.81884766 94.1809082 C121.29904874 108.67726403 123.66177289 122.88560734 123.46655273 138.05224609 C123.43749567 140.50036503 123.44603729 142.94631112 123.45898438 145.39453125 C123.44866881 153.74951339 122.93565576 161.89439562 121.66015625 170.15625 C121.48618568 171.28939636 121.48618568 171.28939636 121.30870056 172.44543457 C119.96960098 180.32206768 117.20447772 187.63715181 114.3125 195.0625 C113.87550781 196.18785156 113.43851563 197.31320313 112.98828125 198.47265625 C112.66214844 199.30667969 112.33601563 200.14070313 112 201 C111.34 201 110.68 201 110 201 C109.731875 201.845625 109.46375 202.69125 109.1875 203.5625 C107.9521405 207.13854067 106.523012 210.53860908 105 214 C104.34 214 103.68 214 103 214 C102.63068359 215.07701172 102.63068359 215.07701172 102.25390625 216.17578125 C98.26952458 225.14994932 89.6557906 232.87186297 83 240 C82.11828125 240.9590625 81.2365625 241.918125 80.328125 242.90625 C59.66589809 264.852751 31.09309698 278.10748748 1.5703125 282.421875 C-1.8287231 282.78998863 -1.8287231 282.78998863 -4 284 C-8.68077224 284.28184561 -13.37404255 284.24534719 -18.0625 284.25 C-18.75650909 284.25100708 -19.45051819 284.25201416 -20.16555786 284.25305176 C-43.95068273 284.22978902 -66.96980072 281.36760019 -89 272 C-89.68078613 271.71616455 -90.36157227 271.4323291 -91.06298828 271.13989258 C-96.66346524 268.74376219 -101.82733171 265.89650629 -107 262.6875 C-108.17792114 261.96119385 -108.17792114 261.96119385 -109.37963867 261.22021484 C-123.38568664 252.48407151 -134.13024217 241.83445692 -143.125 228 C-143.62386719 227.24460937 -144.12273438 226.48921875 -144.63671875 225.7109375 C-146.10365433 223.48180824 -147.55433216 221.242968 -149 219 C-149.45850342 218.29689697 -149.91700684 217.59379395 -150.3894043 216.86938477 C-156.42973216 207.45802345 -159.42604709 197.07579381 -162.10546875 186.3125 C-162.87765239 183.12772004 -162.87765239 183.12772004 -163.98730469 180.74462891 C-168.04599671 169.74467334 -167.43671766 156.23680907 -167.4375 144.625 C-167.43956451 143.85184448 -167.44162903 143.07868896 -167.4437561 142.28210449 C-167.43560342 125.12092718 -165.60475584 107.99711026 -159 92 C-158.75306396 91.38141113 -158.50612793 90.76282227 -158.25170898 90.12548828 C-152.2117941 75.18004798 -144.5830681 62.2064902 -134 50 C-133.01858181 48.77263029 -132.03896232 47.54381612 -131.0625 46.3125 C-130.381875 45.549375 -129.70125 44.78625 -129 44 C-128.34 44 -127.68 44 -127 44 C-127 43.34 -127 42.68 -127 42 C-126.34 42 -125.68 42 -125 42 C-125 41.34 -125 40.68 -125 40 C-122.53485214 37.45222148 -119.72593285 35.26270243 -117 33 C-116.25234375 32.36578125 -115.5046875 31.7315625 -114.734375 31.078125 C-103.1307012 21.47243476 -87.28738808 9.54760869 -71.96484375 7.484375 C-69.83850322 7.06537931 -69.83850322 7.06537931 -67.6328125 5.55078125 C-54.2267554 -2.34566484 -13.21077791 -6.60538896 0 0 Z " fill="#FEFEFE" transform="translate(3858,2493)"/>
<path d="M0 0 C0.66 0.33 1.32 0.66 2 1 C-5.59 8.59 -13.18 16.18 -21 24 C-21 20.25983417 -20.0658409 19.54723807 -17.625 16.8125 C-16.99851562 16.09707031 -16.37203125 15.38164062 -15.7265625 14.64453125 C-14 13 -14 13 -12 13 C-12 12.34 -12 11.68 -12 11 C-11.34 11 -10.68 11 -10 11 C-10 10.34 -10 9.68 -10 9 C-8.3203125 7.34375 -8.3203125 7.34375 -6.125 5.5 C-4.00964496 3.71066742 -1.95980876 1.95980876 0 0 Z " fill="#CBCBCB" transform="translate(3743,2524)"/>
<path d="M0 0 C0.66 0.33 1.32 0.66 2 1 C-2.29 5.29 -6.58 9.58 -11 14 C-11.66 13.67 -12.32 13.34 -13 13 C-8.96476648 8.18876004 -4.95532767 3.86757281 0 0 Z " fill="#343434" transform="translate(1995,1634)"/>
<path d="M0 0 C0.66 0.33 1.32 0.66 2 1 C-0.97 3.97 -3.94 6.94 -7 10 C-7 5.69032084 -4.83274712 4.10253255 -2 1 C-1.34 0.67 -0.68 0.34 0 0 Z " fill="#C2C2C2" transform="translate(554,1573)"/>
</svg>
